<?xml version="1.0" standalone="no"?>
<!DOCTYPE svg PUBLIC "-//W3C//DTD SVG 20010904//EN"
 "http://www.w3.org/TR/2001/REC-SVG-20010904/DTD/svg10.dtd">
<svg version="1.0" xmlns="http://www.w3.org/2000/svg"
 width="500.000000pt" height="500.000000pt" viewBox="0 0 500.000000 500.000000"
 preserveAspectRatio="xMidYMid meet">
<metadata>
Created by potrace 1.11, written by Peter Selinger 2001-2013
</metadata>
<g transform="translate(0.000000,500.000000) scale(0.100000,-0.100000)"
fill="#000000" stroke="none">
<path d="M273 4536 c5 -14 -20 -15 -41 -2 -7 4 -12 2 -12 -4 0 -6 -4 -8 -10
-5 -5 3 -10 -1 -10 -10 0 -9 4 -14 9 -11 9 6 7 -51 -3 -61 -3 -3 -1 -12 5 -20
9 -10 8 -13 -2 -13 -11 0 -11 -2 1 -10 8 -5 10 -10 4 -10 -8 0 -9 -11 -4 -35
5 -20 4 -33 -1 -29 -5 3 -9 1 -9 -5 0 -5 5 -13 11 -17 8 -5 6 -10 -5 -16 -12
-7 -14 -13 -8 -21 6 -7 10 -35 9 -63 0 -28 3 -56 6 -61 4 -6 0 -14 -9 -17 -12
-5 -13 -10 -6 -19 6 -7 9 -29 7 -50 -1 -20 0 -35 5 -32 9 5 5 -53 -4 -62 -3
-3 -1 -12 5 -20 9 -10 8 -13 -2 -13 -11 0 -11 -2 1 -10 8 -5 10 -10 4 -10 -11
0 -11 -40 0 -59 4 -5 2 -12 -3 -15 -10 -6 -6 -51 6 -69 3 -6 1 -7 -5 -3 -7 4
-12 3 -12 -3 0 -5 5 -13 11 -17 8 -5 6 -10 -5 -16 -11 -6 -14 -14 -8 -21 5 -7
9 -25 8 -42 -1 -16 2 -38 7 -49 6 -11 5 -16 0 -13 -5 4 -10 0 -10 -8 0 -8 4
-12 9 -9 4 3 8 0 8 -5 0 -6 -4 -11 -10 -11 -5 0 -10 -7 -10 -16 0 -8 4 -13 9
-10 9 6 7 -51 -3 -61 -3 -3 -1 -12 5 -20 9 -10 8 -13 -2 -13 -11 0 -11 -2 1
-10 8 -5 10 -10 4 -10 -8 0 -9 -11 -4 -35 5 -20 4 -33 -1 -29 -5 3 -9 1 -9 -5
0 -5 5 -13 11 -17 8 -5 6 -10 -5 -16 -12 -7 -14 -13 -8 -21 6 -7 10 -35 9 -63
0 -28 3 -56 6 -61 4 -6 0 -14 -9 -17 -12 -5 -13 -10 -6 -19 6 -7 9 -29 7 -50
-1 -20 0 -35 5 -32 9 5 5 -53 -4 -62 -3 -3 -1 -12 5 -20 9 -10 8 -13 -2 -13
-11 0 -11 -2 1 -10 8 -5 10 -10 4 -10 -11 0 -11 -40 0 -59 4 -5 2 -12 -3 -15
-10 -6 -6 -51 6 -69 3 -6 1 -7 -5 -3 -16 9 -15 -7 0 -22 7 -7 8 -12 3 -12 -14
0 -15 -54 -2 -62 9 -6 9 -8 0 -8 -7 0 -10 -7 -7 -15 5 -13 65 -15 455 -15
l449 0 0 179 c0 154 -2 180 -16 185 -22 9 -26 8 -18 -5 5 -8 1 -8 -14 0 -26
14 -35 14 -26 0 5 -8 1 -8 -13 0 -14 7 -24 7 -33 -2 -10 -9 -11 -9 -6 1 5 7 1
12 -9 12 -10 0 -13 -5 -9 -12 6 -10 4 -10 -8 0 -13 10 -17 10 -21 0 -4 -11 -6
-11 -6 0 -1 9 -6 10 -20 3 -10 -6 -21 -7 -25 -3 -11 10 -60 9 -68 -3 -5 -6 -8
-5 -8 3 0 6 -5 12 -11 12 -5 0 -7 -5 -3 -11 5 -8 1 -8 -14 0 -14 7 -23 8 -27
1 -4 -6 -12 -7 -18 -3 -17 11 -31 10 -39 -2 -5 -6 -8 -5 -8 3 0 9 -5 10 -18 3
-24 -13 -42 0 -48 35 -3 22 -2 25 6 14 8 -12 9 -9 6 12 -3 15 -7 32 -11 38 -3
5 0 10 7 10 9 0 9 3 -2 10 -9 6 -10 10 -3 10 11 0 9 42 -3 62 -3 4 0 8 7 8 8
0 8 4 -1 15 -10 12 -10 15 1 15 11 0 11 2 -1 10 -9 6 -10 10 -3 10 11 0 9 42
-3 62 -3 4 0 8 7 8 8 0 8 4 -1 15 -10 12 -10 15 1 15 11 0 11 2 -1 10 -9 6
-10 10 -3 10 11 0 9 42 -3 62 -3 4 0 8 7 8 8 0 8 4 -1 15 -10 12 -10 15 1 15
11 0 11 2 -1 10 -9 6 -10 10 -3 10 11 0 9 42 -3 62 -3 4 0 8 7 8 8 0 8 4 -1
15 -10 12 -10 15 1 15 11 0 11 2 -1 10 -9 6 -10 10 -3 10 11 0 9 42 -3 62 -3
4 0 8 7 8 8 0 8 4 -1 15 -10 12 -10 15 1 15 11 0 11 2 -1 10 -9 6 -10 10 -3
10 11 0 9 42 -3 62 -3 4 0 8 7 8 8 0 8 4 -1 15 -10 12 -10 15 1 15 11 0 11 2
-1 10 -9 6 -10 10 -3 10 11 0 9 42 -3 62 -3 4 0 8 7 8 8 0 8 4 -1 15 -10 12
-10 15 1 15 11 0 11 2 -1 10 -9 6 -10 10 -3 10 11 0 9 42 -3 62 -3 4 0 8 7 8
8 0 8 4 -1 15 -10 12 -10 15 1 15 11 0 11 2 -1 10 -9 6 -10 10 -3 10 11 0 9
42 -3 62 -3 4 0 8 7 8 8 0 8 4 -1 15 -10 12 -10 15 1 15 11 0 11 2 -1 10 -9 6
-10 10 -3 10 11 0 9 42 -3 62 -3 4 0 8 7 8 8 0 7 5 -2 17 -12 15 -12 16 6 10
19 -7 19 -6 3 7 -18 13 -26 32 -10 22 5 -3 9 1 9 9 0 8 -4 12 -8 9 -7 -4 -4
38 6 89 2 9 -2 17 -8 17 -7 0 -5 5 3 10 12 7 12 10 1 10 -7 0 -11 6 -8 13 3 8
-3 14 -14 14 -10 1 -19 -3 -19 -10 0 -6 -7 -2 -15 9 -15 19 -15 19 -9 -1 6
-16 5 -18 -7 -7 -7 6 -17 12 -22 12 -4 0 -5 -6 -1 -12 4 -7 -3 -4 -15 6 -22
20 -22 20 -15 0 7 -16 5 -17 -8 -7 -8 7 -18 10 -21 6 -10 -9 -66 -10 -60 0 5
9 -11 9 -20 0 -10 -9 -66 -10 -60 0 7 11 -12 8 -24 -4 -8 -8 -13 -7 -18 2 -6
8 -4 10 6 4 8 -5 10 -4 6 0 -12 14 -39 15 -34 1z"/>
<path d="M2440 4399 c0 -5 -4 -7 -10 -4 -15 9 -32 -5 -22 -18 10 -14 10 -67
-1 -84 -4 -6 -3 -14 2 -17 10 -7 9 -25 -2 -43 -4 -6 -3 -14 2 -17 5 -4 8 -19
6 -34 -2 -15 -4 -33 -4 -39 -1 -7 -7 -13 -15 -13 -8 0 -17 -6 -19 -12 -4 -10
-6 -10 -6 0 -1 6 -8 12 -17 12 -9 0 -12 -5 -8 -12 6 -10 4 -10 -7 0 -15 13
-43 17 -35 4 3 -5 -1 -9 -9 -9 -8 0 -12 4 -9 9 3 4 0 8 -5 8 -6 0 -11 -6 -12
-12 0 -7 -2 -25 -3 -39 -1 -18 3 -25 11 -22 9 4 8 -4 -3 -26 -11 -21 -20 -28
-32 -24 -9 3 -14 3 -11 -1 11 -12 50 -16 43 -4 -4 7 -3 8 4 4 15 -9 -7 -47
-23 -39 -5 2 1 -5 15 -17 14 -12 18 -20 10 -17 -20 6 -20 -34 0 -58 11 -13 10
-15 -6 -8 -15 5 -17 4 -9 -8 6 -8 10 -33 10 -56 -1 -24 3 -41 9 -40 6 1 10 -4
8 -11 -1 -8 2 -11 9 -7 6 4 31 8 56 8 33 0 48 -4 55 -18 7 -12 7 -20 -2 -25
-9 -6 -9 -9 1 -13 10 -4 9 -6 -3 -6 -10 -1 -18 -6 -18 -12 0 -5 5 -7 12 -3 8
5 9 0 6 -14 -4 -12 -2 -20 3 -16 5 3 9 0 9 -5 0 -6 -8 -11 -17 -11 -14 0 -15
-2 -4 -9 7 -5 14 -29 15 -55 2 -42 0 -45 -19 -42 -14 3 -22 -1 -22 -10 0 -9 4
-10 12 -4 6 5 16 5 25 0 12 -8 12 -10 1 -10 -11 0 -11 -3 -1 -15 15 -18 0 -20
-20 -2 -8 6 -4 0 8 -14 15 -18 20 -29 13 -34 -6 -3 -8 -11 -4 -18 9 -15 10
-298 0 -304 -4 -3 -4 -10 1 -16 10 -14 10 -67 -1 -84 -4 -6 -3 -15 3 -18 6 -4
8 -15 5 -25 -3 -10 -1 -21 4 -25 7 -4 7 -14 1 -30 -7 -17 -6 -24 2 -22 6 1 14
-11 19 -26 4 -16 14 -36 21 -45 11 -13 11 -15 -2 -8 -8 4 -5 -1 8 -10 12 -9
22 -22 22 -28 0 -24 101 -85 148 -88 6 -1 12 -4 12 -8 0 -4 64 -8 142 -9 78
-1 146 -5 150 -7 4 -3 8 0 8 5 0 6 3 10 8 10 19 -3 23 2 12 16 -10 12 -10 15
0 15 9 0 9 4 -1 17 -10 11 -10 14 -1 9 15 -9 16 6 0 22 -9 9 -9 12 1 12 11 0
11 3 0 17 -10 11 -10 14 -1 9 15 -9 16 6 0 22 -9 9 -9 12 0 12 7 0 12 5 12 11
0 5 -6 7 -12 4 -7 -4 -4 1 6 9 17 14 18 16 3 16 -22 0 -22 16 1 29 14 9 15 10
1 11 -9 0 -16 7 -16 15 0 8 5 11 10 8 7 -4 8 1 3 13 -13 32 -15 55 -5 49 5 -4
9 -1 9 4 0 6 -8 11 -17 11 -15 0 -14 2 3 15 16 13 16 14 1 9 -9 -3 -25 0 -34
7 -9 8 -14 9 -10 3 4 -7 0 -14 -8 -18 -8 -3 -17 -1 -20 4 -3 4 -13 7 -23 6
-21 -4 -55 33 -48 51 3 7 0 13 -7 13 -7 0 -3 7 7 15 20 15 20 15 0 15 -16 0
-17 2 -4 10 11 7 11 10 2 10 -10 0 -10 5 -2 20 8 15 8 20 -2 20 -9 0 -9 3 2
10 12 8 12 10 1 10 -10 0 -11 3 -2 13 8 10 7 17 -2 26 -9 10 -8 11 8 6 20 -7
20 -6 1 9 -11 9 -14 16 -8 16 8 0 10 9 6 26 -5 18 -3 25 3 21 6 -4 17 1 24 11
12 15 12 16 -2 4 -13 -10 -19 -9 -29 3 -11 13 -10 14 3 10 21 -9 30 10 12 25
-18 15 -20 34 -2 24 6 -4 3 3 -7 15 -17 19 -17 21 -3 15 15 -5 16 -3 8 19 -5
14 -7 27 -5 30 3 3 1 14 -5 25 -7 14 -6 25 6 42 9 13 12 21 7 18 -5 -4 -9 14
-10 38 0 24 3 41 8 38 4 -3 5 -10 2 -16 -5 -7 -2 -8 5 -3 9 5 6 14 -11 32 -17
18 -18 23 -5 17 14 -5 16 -2 11 12 -4 11 -12 25 -17 32 -7 9 -5 11 8 6 15 -6
16 -4 6 14 -10 19 -9 20 19 12 19 -5 28 -5 25 1 -4 5 -2 9 4 9 5 0 12 -6 14
-12 3 -7 6 -8 6 -3 1 6 18 9 41 7 35 -4 39 -2 35 17 -2 12 0 21 6 21 5 0 9 5
9 11 0 5 -4 8 -9 4 -5 -3 -13 0 -17 6 -4 7 -3 9 3 6 6 -4 14 0 17 9 9 23 8 27
-10 20 -10 -4 -13 -2 -7 7 13 20 14 49 2 41 -8 -5 -8 -1 0 14 7 14 8 23 1 27
-6 4 -7 12 -3 18 12 20 13 58 0 51 -9 -5 -8 -3 0 6 9 9 9 17 2 26 -7 8 -7 14
1 19 8 5 7 11 -2 23 -11 14 -10 15 6 9 16 -6 17 -5 6 8 -7 8 -17 12 -23 8 -5
-3 -7 -1 -3 5 3 6 2 13 -3 16 -5 4 -13 1 -17 -5 -4 -8 -9 -7 -15 2 -7 12 -9
12 -9 0 0 -11 -3 -11 -17 0 -10 8 -14 9 -10 2 4 -6 3 -14 -3 -18 -5 -3 -10 1
-10 9 0 9 -3 15 -7 15 -24 -4 -53 2 -53 12 0 5 5 7 11 3 8 -5 8 -1 0 13 -7 14
-7 23 2 32 9 9 8 14 -3 21 -13 9 -13 10 0 10 12 0 12 2 1 9 -9 6 -10 11 -2 15
6 4 8 13 4 19 -12 18 -11 30 4 54 11 19 11 23 -3 31 -11 6 -13 11 -5 16 6 4
11 12 11 17 0 6 -4 7 -10 4 -5 -3 -10 1 -10 9 0 9 -5 16 -11 16 -5 0 -7 -5 -3
-12 4 -7 3 -8 -5 -4 -17 11 -61 15 -61 6 0 -4 -7 -7 -15 -7 -8 0 -15 3 -15 7
0 4 -7 7 -15 7 -8 0 -15 -5 -15 -10 0 -5 -6 -4 -14 2 -11 9 -20 9 -35 2 -13
-7 -22 -8 -26 -1 -4 7 -12 7 -24 0 -10 -5 -21 -7 -24 -3 -11 10 -52 9 -59 -2
-5 -7 -11 -7 -15 0 -11 14 -33 17 -33 4z m395 -1029 c3 -6 -1 -7 -9 -4 -18 7
-21 14 -7 14 6 0 13 -4 16 -10z"/>
<path d="M3144 4393 c3 -7 0 -13 -7 -13 -7 0 -8 -3 -2 -8 13 -9 18 -55 6 -47
-10 6 -6 -33 4 -43 2 -3 -1 -12 -8 -20 -10 -13 -9 -14 3 -7 13 8 13 7 1 -8
-12 -16 -9 -21 12 -18 4 1 0 -10 -9 -24 -10 -16 -12 -25 -5 -25 9 0 9 -5 0
-21 -6 -13 -7 -19 -1 -15 6 3 9 -2 8 -11 -3 -20 -24 -24 -43 -10 -9 6 -13 5
-13 -4 0 -11 -2 -11 -10 1 -8 12 -10 12 -10 1 0 -11 -3 -11 -17 0 -11 10 -14
10 -9 2 4 -7 2 -13 -3 -13 -6 0 -11 5 -11 12 0 16 -13 1 -17 -20 -5 -26 -3
-215 3 -224 3 -4 1 -8 -4 -8 -4 0 -7 -17 -5 -37 1 -20 -3 -43 -10 -52 -9 -12
-9 -13 1 -7 11 7 17 -5 13 -27 -1 -5 5 -4 14 0 8 5 38 6 66 3 40 -4 53 -9 55
-23 2 -15 0 -16 -12 -6 -12 10 -13 9 -7 -7 3 -10 11 -22 17 -26 7 -5 7 -8 -1
-8 -7 0 -13 -5 -13 -11 0 -5 6 -7 13 -3 9 5 9 4 0 -6 -6 -7 -9 -20 -5 -29 5
-14 4 -14 -14 -1 -18 14 -18 14 -1 -6 20 -24 11 -40 -12 -21 -14 10 -14 10 -3
-5 8 -9 19 -15 26 -12 7 3 12 -5 13 -18 2 -18 0 -20 -8 -8 -8 11 -9 7 -5 -18
3 -17 1 -43 -4 -57 -7 -18 -6 -23 3 -19 7 2 13 -4 14 -16 1 -11 -3 -20 -8 -20
-6 0 -7 5 -3 12 4 6 3 8 -4 5 -5 -4 -8 -16 -5 -27 3 -11 9 -17 14 -14 5 3 6
-2 3 -10 -3 -8 -13 -12 -22 -10 -14 5 -14 4 1 -6 9 -6 15 -16 12 -21 -4 -5
-11 -6 -17 -3 -7 4 -8 2 -4 -4 4 -6 12 -9 19 -6 8 3 13 -5 14 -18 2 -18 0 -20
-8 -8 -8 11 -9 6 -5 -20 4 -23 1 -43 -9 -57 -14 -19 -13 -21 3 -16 24 6 26
-25 4 -50 -15 -16 -14 -17 1 -11 13 5 16 2 11 -10 -3 -9 -11 -13 -18 -9 -6 4
-5 0 2 -9 11 -14 10 -18 -5 -28 -16 -10 -16 -10 3 -5 14 4 21 1 21 -9 0 -9 -3
-13 -7 -11 -4 2 -7 -9 -6 -25 1 -17 4 -30 9 -30 4 0 7 -5 7 -11 0 -5 -6 -7
-12 -3 -10 6 -10 5 -1 -7 10 -12 10 -18 0 -29 -10 -10 -8 -12 7 -6 16 5 17 4
6 -9 -8 -10 -9 -15 -1 -15 6 0 11 -5 11 -11 0 -5 -5 -7 -11 -3 -7 4 -7 -1 1
-16 6 -12 9 -24 6 -27 -3 -3 2 -12 12 -20 9 -8 12 -12 5 -9 -13 7 13 -51 31
-70 6 -6 20 -23 31 -37 11 -15 25 -27 32 -27 7 0 13 -5 13 -11 0 -5 5 -7 10
-4 6 3 13 -1 16 -9 3 -9 10 -13 15 -10 5 3 23 -1 39 -10 19 -9 28 -10 23 -3
-5 9 -3 9 8 1 8 -6 34 -12 58 -13 25 -1 48 -4 53 -7 4 -3 8 -2 8 3 0 12 174
10 182 -2 9 -12 9 -11 12 83 2 40 -1 75 -6 78 -5 3 -5 11 0 17 13 16 12 49 -2
66 -8 11 -8 13 1 8 13 -8 11 83 -3 104 -4 7 -3 9 3 6 5 -3 10 0 10 8 0 17 -6
18 -27 5 -9 -6 -17 -5 -22 3 -6 9 -8 9 -8 0 0 -7 -5 -13 -11 -13 -5 0 -8 4 -5
9 7 10 -20 9 -30 -2 -3 -3 -13 1 -21 9 -8 8 -18 12 -22 10 -4 -3 -8 5 -8 17
-2 17 0 19 7 7 6 -9 10 -10 10 -3 0 6 -5 15 -10 18 -8 5 -7 11 1 21 9 11 9 14
-1 14 -10 0 -10 3 0 15 9 11 10 19 1 28 -7 10 -7 17 0 24 8 8 8 13 0 17 -8 5
-8 13 0 28 6 12 7 18 1 14 -6 -3 -9 4 -8 18 0 13 6 21 11 18 6 -3 5 1 -1 9
-16 20 -16 446 0 452 6 2 37 3 69 2 31 -1 57 2 57 7 0 5 4 7 8 4 10 -6 10 40
0 49 -4 4 -3 17 3 27 8 14 8 23 0 31 -7 7 -7 16 0 29 7 13 7 23 0 31 -5 7 -6
18 -2 25 8 14 6 146 -3 160 -7 11 -24 11 -43 -1 -8 -5 -13 -3 -13 5 0 10 -2
10 -9 -1 -6 -9 -10 -10 -16 -2 -5 9 -10 9 -21 0 -11 -9 -14 -8 -14 2 0 11 -2
11 -9 0 -15 -24 -20 20 -18 152 1 67 -2 121 -7 125 -15 9 -56 9 -56 -1 0 -4
-5 -5 -12 -1 -16 10 -68 11 -68 1 0 -5 -5 -5 -12 -1 -16 10 -68 11 -68 1 0 -5
-5 -5 -12 -1 -17 11 -68 10 -68 0 0 -6 -5 -5 -11 1 -8 8 -20 8 -35 3 -13 -5
-24 -6 -24 -2 0 4 -9 8 -20 8 -13 0 -19 -5 -16 -13z"/>
<path d="M1625 4260 c-3 -6 1 -7 9 -4 18 7 21 14 7 14 -6 0 -13 -4 -16 -10z"/>
<path d="M1795 4261 c-3 -5 -2 -12 3 -15 5 -3 9 1 9 9 0 17 -3 19 -12 6z"/>
<path d="M1315 4249 c-4 -6 -5 -12 -2 -15 2 -3 7 2 10 11 7 17 1 20 -8 4z"/>
<path d="M1716 4247 c3 -10 9 -15 12 -12 3 3 0 11 -7 18 -10 9 -11 8 -5 -6z"/>
<path d="M1947 4239 c7 -7 15 -10 18 -7 3 3 -2 9 -12 12 -14 6 -15 5 -6 -5z"/>
<path d="M1915 4231 c-3 -5 -2 -12 3 -15 5 -3 9 1 9 9 0 17 -3 19 -12 6z"/>
<path d="M1587 4219 c7 -7 15 -10 18 -7 3 3 -2 9 -12 12 -14 6 -15 5 -6 -5z"/>
<path d="M1993 4210 c-1 -11 2 -22 6 -24 4 -3 7 4 6 14 -2 27 -10 33 -12 10z"/>
<path d="M2027 4219 c7 -7 15 -10 18 -7 3 3 -2 9 -12 12 -14 6 -15 5 -6 -5z"/>
<path d="M2107 4219 c7 -7 15 -10 18 -7 3 3 -2 9 -12 12 -14 6 -15 5 -6 -5z"/>
<path d="M1270 4216 c0 -2 8 -10 18 -17 15 -13 16 -12 3 4 -13 16 -21 21 -21
13z"/>
<path d="M1599 4198 c-5 -18 -6 -38 -1 -34 7 8 12 36 6 36 -2 0 -4 -1 -5 -2z"/>
<path d="M1913 4187 c0 -8 6 -14 14 -14 9 0 10 4 2 14 -6 7 -12 13 -14 13 -1
0 -2 -6 -2 -13z"/>
<path d="M1295 4169 c-4 -6 -5 -12 -2 -15 2 -3 7 2 10 11 7 17 1 20 -8 4z"/>
<path d="M1530 4160 c0 -5 5 -10 11 -10 5 0 7 5 4 10 -3 6 -8 10 -11 10 -2 0
-4 -4 -4 -10z"/>
<path d="M1850 4160 c0 -5 5 -10 11 -10 5 0 7 5 4 10 -3 6 -8 10 -11 10 -2 0
-4 -4 -4 -10z"/>
<path d="M1985 4159 c-3 -4 2 -6 10 -5 21 3 28 13 10 13 -9 0 -18 -4 -20 -8z"/>
<path d="M2353 4155 c0 -8 4 -12 9 -9 5 3 6 10 3 15 -9 13 -12 11 -12 -6z"/>
<path d="M1395 4140 c3 -5 8 -10 11 -10 2 0 4 5 4 10 0 6 -5 10 -11 10 -5 0
-7 -4 -4 -10z"/>
<path d="M1453 4130 c-3 -11 -10 -20 -15 -20 -5 0 -6 6 -3 13 4 6 0 4 -8 -5
-11 -14 -16 -15 -27 -5 -8 8 -11 8 -7 1 4 -7 0 -15 -9 -18 -8 -3 -13 -2 -10 2
2 4 -4 8 -14 8 -15 0 -17 -3 -7 -15 10 -12 8 -14 -10 -9 -13 4 -26 1 -30 -4
-4 -7 -1 -8 8 -4 8 4 5 0 -5 -8 -11 -9 -25 -16 -32 -16 -7 0 -16 -5 -20 -12
-4 -6 -3 -8 4 -4 6 3 14 2 17 -4 4 -6 3 -10 -2 -9 -17 3 -33 -1 -32 -8 3 -21
-3 -33 -16 -33 -12 0 -14 -4 -5 -19 9 -17 7 -19 -11 -16 -17 4 -19 2 -9 -10 7
-8 8 -15 3 -15 -5 0 -8 -13 -7 -30 1 -17 -3 -30 -9 -30 -7 0 -5 -5 3 -10 13
-9 13 -10 0 -10 -13 0 -13 -1 0 -10 10 -6 11 -10 3 -10 -7 0 -13 -12 -13 -26
0 -17 4 -23 13 -19 6 4 3 -1 -7 -9 -11 -9 -15 -16 -10 -16 13 0 12 -43 -1 -52
-5 -4 -1 -8 10 -8 17 0 17 -2 5 -10 -13 -8 -13 -13 -2 -31 8 -11 9 -18 3 -14
-15 9 -14 -18 2 -34 10 -11 9 -13 -3 -9 -11 4 -15 -2 -15 -18 0 -13 6 -24 13
-24 10 0 9 -4 -2 -16 -12 -11 -13 -20 -6 -34 7 -13 6 -20 -3 -23 -9 -4 -9 -6
0 -6 7 -1 10 -8 6 -18 -5 -12 -3 -14 8 -9 8 4 6 1 -3 -7 -16 -13 -16 -15 0
-32 9 -10 11 -15 5 -11 -8 4 -13 2 -13 -6 0 -8 6 -20 13 -27 10 -11 9 -13 -3
-9 -20 7 -19 -50 1 -63 11 -7 10 -9 -6 -9 -11 0 -15 -4 -10 -8 6 -4 10 -16 10
-27 0 -11 -4 -23 -10 -27 -5 -4 -1 -8 10 -8 17 0 17 -2 5 -10 -13 -8 -13 -13
-2 -31 8 -11 9 -18 3 -14 -15 9 -14 -18 2 -34 10 -11 9 -13 -3 -9 -11 4 -15
-2 -15 -18 0 -14 6 -24 15 -25 10 0 11 -2 3 -6 -7 -2 -13 -11 -13 -18 0 -7 6
-16 13 -18 10 -4 10 -6 0 -6 -7 -1 -13 -10 -13 -21 0 -11 6 -20 13 -20 7 0 8
-3 2 -8 -12 -9 -19 -36 -7 -28 5 3 9 -14 10 -36 1 -23 8 -45 15 -50 6 -4 8 -8
4 -8 -5 0 1 -15 12 -33 11 -19 18 -37 14 -40 -3 -4 -1 -7 6 -7 7 0 26 -13 43
-30 16 -16 36 -30 44 -30 9 0 12 -5 8 -12 -5 -8 0 -9 14 -6 12 4 24 2 27 -3 3
-4 13 -5 22 -2 10 4 14 2 10 -5 -5 -7 48 -11 180 -12 106 0 192 -5 197 -10 13
-13 26 -13 26 1 0 5 -5 7 -12 3 -6 -4 -8 -3 -5 4 4 5 16 8 27 5 11 -3 17 -10
13 -17 -5 -8 -3 -8 8 0 8 6 21 12 29 12 8 1 27 3 42 5 15 2 25 0 22 -4 -3 -5
2 -6 10 -3 9 3 13 11 9 17 -4 6 0 8 10 4 10 -3 17 -2 17 4 0 6 5 7 10 4 6 -4
7 -11 4 -17 -4 -7 -2 -8 5 -4 6 4 9 12 6 17 -4 5 -1 9 5 9 6 0 9 4 6 8 -3 5 1
9 9 9 8 0 11 -5 8 -11 -4 -6 1 -5 10 2 9 8 22 11 29 7 7 -4 4 1 -6 9 -17 14
-18 16 -3 16 9 0 16 3 16 8 -3 19 3 22 22 11 17 -9 20 -8 13 3 -14 22 -13 40
1 34 9 -3 12 3 10 20 -2 17 2 23 13 22 13 -2 16 7 16 44 -1 26 3 45 8 42 4 -3
8 0 8 5 0 6 -4 11 -8 11 -13 0 -7 43 6 48 7 2 12 8 12 13 0 6 -4 8 -9 4 -5 -3
-13 0 -17 6 -4 8 -3 9 4 5 8 -5 12 0 12 13 0 10 -6 22 -12 25 -7 3 -4 4 8 1
14 -4 21 0 21 9 0 8 -6 12 -13 9 -8 -3 -11 2 -10 14 2 10 -2 24 -8 32 -9 12
-8 13 3 6 11 -6 13 -4 8 8 -4 11 -1 17 9 17 8 0 12 5 9 10 -4 6 -10 8 -15 5
-5 -3 -12 0 -16 6 -4 8 -3 9 4 5 8 -5 12 0 12 13 0 12 -5 21 -12 21 -6 0 -8 3
-5 6 4 4 13 2 20 -4 11 -9 13 -7 12 8 -1 11 -5 23 -10 27 -4 5 -5 2 -1 -4 4
-7 2 -13 -4 -13 -7 0 -9 7 -6 16 4 9 1 23 -5 31 -10 11 -8 12 17 3 l29 -11
-22 20 c-22 21 -22 51 1 80 9 12 8 13 -6 8 -13 -4 -15 -2 -11 10 4 11 2 14 -5
9 -7 -4 -12 -2 -12 3 0 6 10 11 23 11 16 0 18 3 8 9 -8 5 -10 14 -6 21 5 9 4
11 -3 6 -13 -8 -12 20 1 41 6 9 3 11 -8 7 -11 -5 -14 -2 -9 10 3 9 10 14 14
11 7 -4 6 23 0 33 -1 1 -2 16 -2 32 0 17 1 31 2 33 7 10 7 36 0 32 -5 -3 -12
0 -16 6 -4 8 -3 9 4 5 8 -5 12 0 12 13 0 12 -5 21 -12 21 -6 0 -8 3 -5 6 4 4
12 2 20 -4 10 -9 13 -5 12 18 0 17 -9 37 -20 46 -11 8 -14 12 -6 8 11 -5 13
-3 8 9 -4 11 -1 17 8 17 20 0 19 16 -3 32 -10 7 -17 24 -16 38 1 14 -2 35 -7
48 -6 17 -6 21 3 16 7 -5 8 -3 2 7 -5 8 -9 16 -10 19 -4 20 -18 40 -29 40 -17
0 -28 30 -12 31 7 0 2 4 -10 9 -13 5 -23 15 -23 21 0 7 -3 9 -7 5 -4 -3 -13 4
-20 16 -7 13 -12 17 -13 10 0 -7 -5 -10 -10 -7 -8 5 -7 11 1 21 7 9 8 14 1 14
-6 0 -13 -6 -15 -12 -4 -9 -8 -10 -14 -3 -4 6 -25 10 -45 10 -30 -1 -35 2 -26
13 9 10 8 12 -3 10 -8 -2 -17 -7 -21 -13 -5 -6 -8 -4 -8 5 0 13 -1 13 -10 0
-8 -12 -10 -12 -10 -1 0 11 -3 11 -17 0 -9 -8 -14 -9 -10 -3 4 7 -2 14 -14 17
-14 4 -19 1 -16 -7 3 -7 -1 -13 -9 -13 -9 0 -13 6 -9 16 4 11 0 10 -16 -5 -20
-17 -22 -17 -16 -1 4 9 2 17 -3 17 -6 0 -10 -5 -10 -11 0 -5 -4 -8 -9 -5 -5 4
-12 0 -14 -6 -4 -10 -6 -10 -6 0 -1 6 -8 12 -17 12 -8 0 -13 -4 -10 -8 3 -5
-1 -9 -9 -9 -8 0 -12 3 -10 7 2 4 -14 7 -36 8 -22 1 -38 -2 -35 -6 3 -5 -1 -9
-8 -9 -8 0 -12 6 -9 14 7 18 -2 17 -21 -3 -10 -10 -16 -11 -16 -3 0 8 -5 8
-17 -2 -11 -10 -14 -10 -9 -1 4 7 1 12 -9 12 -9 0 -14 -4 -11 -8 3 -5 -1 -9
-9 -9 -8 0 -12 4 -10 8 3 4 -2 9 -10 13 -8 3 -19 -3 -25 -12 -10 -15 -11 -14
-7 6 6 27 -3 30 -10 2z m741 -318 c3 -5 -1 -9 -9 -9 -8 0 -12 4 -9 9 3 4 7 8
9 8 2 0 6 -4 9 -8z m-549 -32 c3 -5 1 -10 -4 -10 -6 0 -11 5 -11 10 0 6 2 10
4 10 3 0 8 -4 11 -10z m102 -17 c3 -7 11 -13 18 -13 7 0 12 -8 11 -17 -2 -10
2 -21 8 -25 7 -5 3 -8 -9 -8 -19 -1 -19 -1 -2 -11 10 -6 14 -15 10 -22 -9 -15
-11 -47 -3 -47 4 0 7 -7 7 -15 0 -8 -4 -15 -9 -15 -5 0 -4 -8 1 -19 6 -10 8
-21 5 -24 -9 -9 -12 -57 -4 -57 10 0 8 -20 -3 -37 -5 -8 -3 -13 3 -13 6 0 8
-5 5 -11 -12 -18 -13 -59 -1 -59 6 0 4 -5 -4 -10 -9 -6 -10 -10 -3 -10 8 0 9
-9 3 -30 -6 -21 -5 -30 3 -30 7 0 6 -4 -3 -10 -8 -5 -10 -10 -5 -10 12 0 13
-40 1 -58 -4 -7 -2 -12 4 -12 6 0 8 -5 5 -11 -10 -16 -13 -59 -5 -59 10 0 7
-20 -5 -39 -5 -10 -4 -16 4 -19 9 -3 9 -7 0 -18 -6 -8 -8 -14 -3 -14 4 0 -1
-6 -11 -14 -25 -18 -143 -15 -155 4 -5 8 -6 18 -4 22 3 4 0 8 -6 8 -6 0 -8 5
-4 12 7 11 8 32 5 69 -1 5 -7 7 -13 3 -8 -4 -7 1 2 12 13 16 16 39 11 102 -1
8 -6 10 -13 6 -7 -4 -5 1 4 12 11 13 14 24 8 34 -5 8 -4 22 2 33 9 17 8 19 -8
13 -16 -6 -16 -5 2 15 18 22 18 22 0 15 -16 -5 -17 -4 -6 9 7 8 9 15 4 15 -4
0 -3 5 4 12 9 9 9 15 -1 26 -9 12 -9 16 1 20 9 3 10 7 2 17 -8 10 -8 15 0 20
8 5 7 11 -2 23 -11 12 -11 16 0 20 9 3 10 7 2 17 -8 10 -8 15 0 20 8 5 7 11
-2 23 -11 12 -11 16 0 20 10 3 8 8 -5 18 -13 10 -14 14 -3 12 10 -2 15 7 16
32 2 73 2 73 29 68 13 -3 24 -2 23 1 -2 17 6 21 43 19 24 -1 43 -7 46 -15z
m450 -29 c-3 -3 -12 -4 -19 -1 -8 3 -5 6 6 6 11 1 17 -2 13 -5z"/>
<path d="M1690 3761 c0 -6 4 -12 8 -15 5 -3 9 1 9 9 0 8 -4 15 -9 15 -4 0 -8
-4 -8 -9z"/>
<path d="M2116 4141 c-3 -5 2 -15 12 -22 15 -12 16 -12 5 2 -7 9 -10 19 -6 22
3 4 4 7 0 7 -3 0 -8 -4 -11 -9z"/>
<path d="M2216 4113 c-6 -14 -5 -15 5 -6 7 7 10 15 7 18 -3 3 -9 -2 -12 -12z"/>
<path d="M4111 4124 c-1 -6 -14 -11 -30 -12 -17 0 -39 -6 -50 -12 -16 -8 -21
-8 -21 2 0 10 -2 10 -8 1 -4 -6 -19 -15 -35 -18 -15 -4 -24 -11 -21 -16 3 -5
-1 -9 -8 -9 -8 0 -29 -17 -48 -37 -19 -20 -29 -34 -22 -29 6 4 12 2 12 -3 0
-6 -6 -11 -13 -11 -14 0 -43 -84 -40 -112 2 -10 -2 -18 -9 -18 -6 0 -8 -3 -5
-7 4 -3 2 -12 -5 -20 -9 -11 -7 -12 8 -7 15 6 17 4 7 -6 -6 -7 -9 -19 -6 -28
4 -10 2 -13 -5 -8 -8 5 -10 2 -6 -8 3 -9 10 -13 15 -10 5 3 6 -2 3 -10 -3 -9
-11 -13 -17 -9 -6 4 -7 1 -2 -6 4 -7 7 -156 7 -332 0 -177 4 -316 9 -313 5 3
6 -2 3 -10 -3 -9 -11 -13 -17 -9 -6 4 -7 1 -1 -8 5 -8 9 -30 10 -50 0 -29 -3
-36 -15 -31 -14 5 -14 4 -1 -10 8 -9 18 -14 22 -11 4 2 5 -3 2 -11 -3 -9 -11
-13 -18 -9 -7 4 -7 1 1 -9 7 -8 10 -18 6 -21 -3 -4 -1 -7 7 -7 10 0 10 -3 1
-14 -9 -11 -9 -16 0 -22 8 -5 9 -3 4 6 -6 9 -4 11 5 5 9 -6 6 -13 -12 -29 -13
-11 -18 -17 -11 -12 15 10 56 -21 47 -35 -3 -5 2 -9 11 -9 13 0 14 -4 4 -22
-9 -19 -9 -21 1 -11 11 10 17 8 31 -9 10 -11 16 -26 12 -32 -4 -6 1 -5 10 2
13 12 18 11 29 -7 9 -15 15 -17 25 -9 10 8 13 6 13 -8 0 -16 2 -17 10 -4 8 13
14 8 12 -11 -1 -3 5 -6 13 -6 8 0 12 4 9 9 -3 4 0 8 5 8 6 0 11 -4 11 -9 0 -6
105 -10 265 -10 215 1 266 3 276 15 14 17 33 19 23 2 -4 -7 1 -6 12 2 10 9 31
22 46 29 15 8 25 18 22 23 -3 4 2 8 10 8 8 0 21 10 27 22 7 13 18 29 26 36 7
8 11 18 8 23 -4 5 -2 9 3 9 5 0 9 6 10 13 9 62 16 87 26 87 6 0 4 5 -4 10 -12
8 -12 10 -1 10 10 0 11 3 2 14 -9 11 -9 15 1 19 10 4 10 8 -2 16 -8 6 -10 11
-4 11 6 0 12 11 12 25 0 16 -5 22 -12 18 -6 -4 -5 1 3 10 11 14 11 17 0 17
-12 0 -12 2 -1 9 17 11 17 21 0 32 -10 7 -10 9 0 9 6 0 12 7 12 15 0 8 -6 15
-12 15 -10 0 -10 2 0 9 17 11 17 21 0 32 -10 7 -10 9 0 9 6 0 12 7 12 15 0 8
-6 15 -12 15 -10 0 -10 2 0 9 8 4 14 12 14 16 0 4 -6 12 -14 16 -10 7 -10 9 0
9 6 0 12 7 12 15 0 8 -6 15 -12 15 -10 0 -10 2 0 9 17 11 17 21 0 32 -8 5 -8
9 -2 9 6 0 12 11 12 25 0 14 -6 25 -12 25 -6 0 -4 5 4 10 12 8 13 11 1 19 -11
7 -11 9 0 13 12 4 11 8 -1 23 -9 11 -10 16 -2 11 6 -4 12 -3 12 1 0 5 -6 15
-12 22 -10 11 -10 13 0 7 6 -4 12 -3 12 1 0 5 -6 15 -12 22 -10 11 -10 13 0 7
6 -4 12 -3 12 1 0 5 -6 15 -12 22 -10 11 -10 13 0 7 6 -4 12 -3 12 1 0 5 -6
15 -12 22 -10 11 -10 13 0 7 6 -4 12 -3 12 1 0 5 -6 15 -12 22 -10 11 -10 13
0 7 6 -4 12 -3 12 1 0 5 -6 15 -12 22 -10 11 -10 13 0 7 6 -4 12 -3 12 1 0 5
-6 15 -12 22 -10 11 -10 13 0 7 6 -4 12 -3 12 1 0 5 -6 15 -12 22 -10 11 -10
13 0 7 6 -4 12 -3 12 1 0 5 -6 15 -12 22 -10 11 -10 13 0 7 6 -4 12 -3 12 3 0
5 -6 12 -12 14 -10 4 -9 6 1 6 10 1 11 4 2 15 -9 10 -9 16 -1 21 8 5 8 10 0
20 -6 8 -13 30 -16 51 -5 43 -12 56 -25 49 -5 -4 -9 -1 -9 4 0 6 5 11 12 11 6
0 3 7 -8 15 -10 8 -16 15 -12 15 4 0 -5 12 -20 27 -15 15 -30 27 -34 25 -5 -1
-8 2 -8 7 0 5 -14 14 -31 20 -17 6 -28 14 -25 19 3 5 -7 8 -22 6 -14 -1 -32 2
-39 8 -9 7 -13 7 -13 0 0 -6 -7 -9 -15 -6 -8 4 -12 11 -8 18 4 6 -1 5 -10 -3
-9 -7 -17 -9 -17 -4 0 5 -9 9 -19 9 -11 0 -18 -4 -15 -8 2 -4 -5 -6 -16 -5
-11 1 -20 5 -20 10 0 5 -6 4 -14 -2 -11 -9 -15 -9 -19 1 -4 11 -6 10 -6 0 -1
-8 -6 -10 -13 -5 -18 11 -68 11 -68 0 0 -5 -6 -4 -14 2 -11 9 -16 9 -21 0 -6
-8 -10 -7 -16 2 -5 8 -9 9 -9 4 0 -6 -9 -11 -20 -12 -13 -1 -18 2 -13 10 4 7
0 6 -10 -2 -13 -10 -17 -10 -17 -1 0 10 -3 10 -14 1 -10 -9 -16 -9 -21 -1 -5
8 -10 8 -20 0 -10 -8 -14 -7 -18 2 -3 7 -6 8 -6 2z m243 -349 c22 -2 48 -33
39 -48 -3 -5 1 -13 8 -18 12 -7 11 -9 -1 -9 -13 0 -13 -1 0 -10 10 -6 11 -10
3 -10 -9 0 -10 -7 -3 -25 7 -18 6 -25 -3 -26 -8 0 -8 -2 2 -6 11 -5 11 -7 0
-14 -12 -7 -11 -9 1 -9 13 0 13 -1 0 -10 -13 -9 -13 -10 0 -10 13 0 13 -1 0
-10 -13 -9 -13 -11 0 -20 13 -9 13 -10 0 -10 -13 0 -13 -1 0 -10 8 -5 11 -10
6 -10 -5 0 -3 -7 4 -15 11 -13 10 -14 -2 -10 -9 4 -15 0 -15 -10 0 -8 5 -15
11 -15 6 0 4 -5 -4 -10 -12 -8 -12 -10 -1 -10 10 0 11 -3 3 -13 -7 -8 -7 -18
-2 -27 6 -9 5 -17 -3 -22 -9 -6 -8 -8 3 -8 13 0 13 -1 0 -10 -13 -9 -13 -10 0
-10 13 0 13 -1 0 -10 -13 -9 -13 -10 0 -10 13 0 13 -1 0 -10 -13 -9 -13 -11 0
-20 13 -9 13 -10 0 -10 -13 0 -13 -1 0 -10 13 -9 13 -10 0 -10 -13 0 -13 -1 0
-10 10 -6 11 -10 2 -10 -14 0 -12 -21 3 -32 6 -5 4 -8 -5 -8 -13 0 -13 -1 0
-10 10 -6 11 -10 3 -10 -9 0 -10 -7 -3 -25 7 -18 6 -25 -3 -26 -8 0 -8 -2 2
-6 11 -5 11 -7 0 -14 -12 -7 -11 -9 1 -9 13 0 13 -1 0 -10 -13 -9 -13 -10 0
-10 13 0 13 -1 0 -11 -10 -7 -11 -12 -4 -15 16 -7 -6 -53 -26 -56 -85 -9 -157
3 -143 25 2 4 0 7 -4 7 -5 0 -8 121 -8 269 1 189 -2 268 -9 264 -7 -5 -7 -2 0
8 6 8 11 43 10 79 -2 56 1 68 21 88 15 15 31 21 48 18 14 -3 25 0 25 5 0 6 6
7 12 3 7 -5 21 -9 32 -9z m-504 -935 c0 -5 -2 -10 -4 -10 -3 0 -8 5 -11 10 -3
6 -1 10 4 10 6 0 11 -4 11 -10z"/>
<path d="M1230 4102 c0 -5 7 -9 15 -9 8 0 12 4 9 9 -3 4 -9 8 -15 8 -5 0 -9
-4 -9 -8z"/>
<path d="M2190 4057 c0 -2 6 -10 14 -16 11 -9 16 -9 22 1 4 7 4 10 -1 6 -4 -4
-14 -3 -22 3 -7 6 -13 9 -13 6z"/>
<path d="M1226 4038 c3 -5 10 -6 15 -3 13 9 11 12 -6 12 -8 0 -12 -4 -9 -9z"/>
<path d="M2194 3969 c-3 -6 -2 -15 3 -20 5 -5 9 -1 9 11 0 23 -2 24 -12 9z"/>
<path d="M2253 3789 c-2 -23 3 -25 10 -4 4 8 3 16 -1 19 -4 3 -9 -4 -9 -15z"/>
<path d="M2906 3718 c3 -5 10 -6 15 -3 13 9 11 12 -6 12 -8 0 -12 -4 -9 -9z"/>
<path d="M3026 3718 c3 -4 9 -8 15 -8 5 0 9 4 9 8 0 5 -7 9 -15 9 -8 0 -12 -4
-9 -9z"/>
<path d="M2233 3705 c0 -8 4 -12 9 -9 5 3 6 10 3 15 -9 13 -12 11 -12 -6z"/>
<path d="M3053 3645 c0 -8 4 -12 9 -9 5 3 6 10 3 15 -9 13 -12 11 -12 -6z"/>
<path d="M2874 3626 c1 -8 5 -18 8 -22 4 -3 5 1 4 10 -1 8 -5 18 -8 22 -4 3
-5 -1 -4 -10z"/>
<path d="M2234 3606 c1 -8 5 -18 8 -22 4 -3 5 1 4 10 -1 8 -5 18 -8 22 -4 3
-5 -1 -4 -10z"/>
<path d="M2385 3580 c-3 -6 1 -7 9 -4 18 7 21 14 7 14 -6 0 -13 -4 -16 -10z"/>
<path d="M2916 3567 c3 -10 9 -15 12 -12 3 3 0 11 -7 18 -10 9 -11 8 -5 -6z"/>
<path d="M2955 3569 c-4 -6 -5 -12 -2 -15 2 -3 7 2 10 11 7 17 1 20 -8 4z"/>
<path d="M2233 3555 c0 -8 4 -12 9 -9 5 3 6 10 3 15 -9 13 -12 11 -12 -6z"/>
<path d="M2307 3539 c7 -7 15 -10 18 -7 3 3 -2 9 -12 12 -14 6 -15 5 -6 -5z"/>
<path d="M2834 3542 c3 -5 0 -13 -6 -15 -9 -4 -10 -6 -1 -6 17 -1 25 16 12 25
-7 4 -9 3 -5 -4z"/>
<path d="M3060 3526 c0 -2 8 -10 18 -17 15 -13 16 -12 3 4 -13 16 -21 21 -21
13z"/>
<path d="M2315 3509 c-4 -6 -5 -12 -2 -15 2 -3 7 2 10 11 7 17 1 20 -8 4z"/>
<path d="M2993 3490 c-1 -11 2 -22 6 -24 4 -3 7 4 6 14 -2 27 -10 33 -12 10z"/>
<path d="M2935 3491 c-3 -5 -2 -12 3 -15 5 -3 9 1 9 9 0 17 -3 19 -12 6z"/>
<path d="M2936 3447 c3 -10 9 -15 12 -12 3 3 0 11 -7 18 -10 9 -11 8 -5 -6z"/>
<path d="M3055 3449 c-4 -6 -5 -12 -2 -15 2 -3 7 2 10 11 7 17 1 20 -8 4z"/>
<path d="M2250 3416 c0 -2 8 -10 18 -17 15 -13 16 -12 3 4 -13 16 -21 21 -21
13z"/>
<path d="M2239 3353 c-13 -16 -12 -17 4 -4 9 7 17 15 17 17 0 8 -8 3 -21 -13z"/>
<path d="M2390 3359 c0 -5 5 -7 10 -4 6 3 10 8 10 11 0 2 -4 4 -10 4 -5 0 -10
-5 -10 -11z"/>
<path d="M3080 3360 c-9 -6 -10 -10 -3 -10 6 0 15 5 18 10 8 12 4 12 -15 0z"/>
<path d="M2235 3319 c-3 -4 2 -6 10 -5 21 3 28 13 10 13 -9 0 -18 -4 -20 -8z"/>
<path d="M2346 3318 c3 -5 10 -6 15 -3 13 9 11 12 -6 12 -8 0 -12 -4 -9 -9z"/>
<path d="M2376 3313 c-6 -14 -5 -15 5 -6 7 7 10 15 7 18 -3 3 -9 -2 -12 -12z"/>
<path d="M3039 3328 c-5 -18 -6 -38 -1 -34 7 8 12 36 6 36 -2 0 -4 -1 -5 -2z"/>
<path d="M2870 3306 c0 -2 7 -7 16 -10 8 -3 12 -2 9 4 -6 10 -25 14 -25 6z"/>
<path d="M2375 3281 c-3 -5 -2 -12 3 -15 5 -3 9 1 9 9 0 17 -3 19 -12 6z"/>
<path d="M2240 3240 c-9 -6 -10 -10 -3 -10 6 0 15 5 18 10 8 12 4 12 -15 0z"/>
<path d="M3615 3221 c-3 -5 -2 -12 3 -15 5 -3 9 1 9 9 0 17 -3 19 -12 6z"/>
<path d="M3030 3196 c7 -7 13 -7 20 0 6 6 3 10 -10 10 -13 0 -16 -4 -10 -10z"/>
<path d="M3125 3200 c3 -5 8 -10 11 -10 2 0 4 5 4 10 0 6 -5 10 -11 10 -5 0
-7 -4 -4 -10z"/>
<path d="M3593 3191 c0 -11 5 -18 9 -15 4 3 5 11 1 19 -7 21 -12 19 -10 -4z"/>
<path d="M2995 3191 c-3 -5 -2 -12 3 -15 5 -3 9 1 9 9 0 17 -3 19 -12 6z"/>
<path d="M3080 3180 c-12 -7 -10 -9 7 -7 12 0 19 5 17 9 -6 10 -6 10 -24 -2z"/>
<path d="M2255 3169 c-4 -6 -5 -12 -2 -15 2 -3 7 2 10 11 7 17 1 20 -8 4z"/>
<path d="M2296 3158 c3 -5 10 -6 15 -3 13 9 11 12 -6 12 -8 0 -12 -4 -9 -9z"/>
<path d="M3646 3158 c3 -5 10 -6 15 -3 13 9 11 12 -6 12 -8 0 -12 -4 -9 -9z"/>
<path d="M2196 3122 c-3 -5 1 -9 9 -9 8 0 12 4 9 9 -3 4 -7 8 -9 8 -2 0 -6 -4
-9 -8z"/>
<path d="M3713 3085 c0 -8 4 -12 9 -9 5 3 6 10 3 15 -9 13 -12 11 -12 -6z"/>
<path d="M3679 3073 c-13 -16 -12 -17 4 -4 16 13 21 21 13 21 -2 0 -10 -8 -17
-17z"/>
<path d="M630 3056 c0 -2 8 -10 18 -17 15 -13 16 -12 3 4 -13 16 -21 21 -21
13z"/>
<path d="M2250 3020 c0 -5 5 -10 11 -10 5 0 7 5 4 10 -3 6 -8 10 -11 10 -2 0
-4 -4 -4 -10z"/>
<path d="M3776 3002 c-3 -5 1 -9 9 -9 8 0 12 4 9 9 -3 4 -7 8 -9 8 -2 0 -6 -4
-9 -8z"/>
<path d="M2205 2980 c-4 -6 -11 -7 -17 -4 -6 4 -6 -2 1 -15 7 -11 14 -21 17
-21 3 0 2 5 -1 10 -4 6 -1 17 5 25 7 8 10 15 7 15 -3 0 -9 -5 -12 -10z"/>
<path d="M2236 2982 c-3 -5 1 -9 9 -9 8 0 12 4 9 9 -3 4 -7 8 -9 8 -2 0 -6 -4
-9 -8z"/>
<path d="M3750 2866 c0 -2 7 -7 16 -10 8 -3 12 -2 9 4 -6 10 -25 14 -25 6z"/>
<path d="M3826 2718 c3 -5 10 -6 15 -3 13 9 11 12 -6 12 -8 0 -12 -4 -9 -9z"/>
<path d="M3926 2685 c-11 -8 -15 -15 -9 -15 6 0 16 7 23 15 16 19 11 19 -14 0z"/>
<path d="M3875 2671 c-3 -5 -2 -12 3 -15 5 -3 9 1 9 9 0 17 -3 19 -12 6z"/>
<path d="M2036 2647 c3 -10 9 -15 12 -12 3 3 0 11 -7 18 -10 9 -11 8 -5 -6z"/>
<path d="M3816 2647 c3 -10 9 -15 12 -12 3 3 0 11 -7 18 -10 9 -11 8 -5 -6z"/>
<path d="M3956 2647 c3 -10 9 -15 12 -12 3 3 0 11 -7 18 -10 9 -11 8 -5 -6z"/>
<path d="M1886 2642 c-3 -5 1 -9 9 -9 8 0 12 4 9 9 -3 4 -7 8 -9 8 -2 0 -6 -4
-9 -8z"/>
<path d="M1879 2607 c8 -9 16 -15 19 -12 3 3 12 -1 21 -8 14 -11 14 -10 2 6
-8 9 -16 15 -19 12 -3 -3 -12 1 -21 8 -14 11 -14 10 -2 -6z"/>
<path d="M3793 2605 c0 -8 4 -12 9 -9 5 3 6 10 3 15 -9 13 -12 11 -12 -6z"/>
<path d="M3889 2603 c-13 -16 -12 -17 4 -4 16 13 21 21 13 21 -2 0 -10 -8 -17
-17z"/>
<path d="M2067 2599 c7 -7 15 -10 18 -7 3 3 -2 9 -12 12 -14 6 -15 5 -6 -5z"/>
<path d="M1990 2586 c0 -2 7 -7 16 -10 8 -3 12 -2 9 4 -6 10 -25 14 -25 6z"/>
<path d="M3970 2579 c0 -5 5 -7 10 -4 6 3 10 8 10 11 0 2 -4 4 -10 4 -5 0 -10
-5 -10 -11z"/>
<path d="M3855 2551 c-3 -5 -2 -12 3 -15 5 -3 9 1 9 9 0 17 -3 19 -12 6z"/>
<path d="M1736 2487 c3 -10 9 -15 12 -12 3 3 0 11 -7 18 -10 9 -11 8 -5 -6z"/>
<path d="M1730 2456 c0 -2 8 -10 18 -17 15 -13 16 -12 3 4 -13 16 -21 21 -21
13z"/>
<path d="M1774 2442 c4 -3 14 -7 22 -8 9 -1 13 0 10 4 -4 3 -14 7 -22 8 -9 1
-13 0 -10 -4z"/>
<path d="M1914 2442 c4 -3 14 -7 22 -8 9 -1 13 0 10 4 -4 3 -14 7 -22 8 -9 1
-13 0 -10 -4z"/>
<path d="M1975 2441 c-3 -5 -2 -12 3 -15 5 -3 9 1 9 9 0 17 -3 19 -12 6z"/>
<path d="M1926 2398 c3 -5 10 -6 15 -3 13 9 11 12 -6 12 -8 0 -12 -4 -9 -9z"/>
<path d="M1793 2351 c0 -11 5 -18 9 -15 4 3 5 11 1 19 -7 21 -12 19 -10 -4z"/>
<path d="M1655 2300 c-3 -5 -1 -10 4 -10 6 0 11 5 11 10 0 6 -2 10 -4 10 -3 0
-8 -4 -11 -10z"/>
<path d="M1717 2304 c-3 -3 -3 -13 1 -22 5 -15 4 -16 -13 -2 -11 9 -16 10 -11
2 5 -9 -2 -11 -29 -7 -21 2 -33 0 -30 -5 4 -6 1 -10 -5 -10 -7 0 -10 -6 -7
-14 3 -7 0 -19 -6 -25 -8 -8 -8 -11 1 -11 7 0 12 -4 12 -10 0 -5 -8 -7 -17 -4
-15 5 -15 4 -4 -4 19 -14 23 -43 8 -61 -9 -11 -9 -15 1 -18 6 -3 12 -9 12 -14
0 -6 -5 -7 -12 -3 -7 5 -8 3 -2 -7 13 -21 13 -62 0 -78 -8 -11 -8 -15 2 -18 6
-3 12 -9 12 -14 0 -6 -5 -7 -10 -4 -6 4 -5 -5 2 -19 6 -14 15 -26 20 -26 5 0
6 -5 2 -12 -4 -7 -3 -8 5 -4 6 4 9 11 6 16 -3 5 -1 11 5 15 5 3 11 1 11 -4 3
-26 4 -30 11 -35 5 -3 6 -3 3 1 -3 3 1 13 8 21 10 13 9 14 -3 7 -8 -4 -12 -4
-7 0 9 11 77 13 71 3 -3 -5 0 -8 6 -8 6 0 8 -5 4 -12 -4 -7 -3 -8 5 -4 6 4 9
11 6 16 -3 5 -1 11 5 15 5 3 10 1 10 -6 0 -8 5 -7 17 2 15 12 16 12 9 -5 -7
-19 -6 -19 14 -1 11 10 20 14 20 9 0 -5 20 -9 44 -9 24 0 42 3 40 7 -3 5 0 8
5 8 6 0 11 -6 11 -12 0 -9 4 -8 10 2 9 13 10 13 10 0 1 -11 4 -10 16 5 8 11
13 28 10 38 -2 9 1 17 6 17 7 0 7 5 1 13 -5 6 -8 66 -8 133 l1 121 -29 11
c-25 9 -27 9 -16 -4 10 -12 9 -13 -5 -8 -9 3 -16 11 -16 18 0 6 -5 3 -11 -7
-8 -14 -14 -16 -25 -6 -8 6 -14 8 -14 3 0 -5 -5 -2 -10 6 -6 10 -10 11 -10 3
0 -7 -5 -13 -11 -13 -5 0 -7 6 -3 13 6 10 4 10 -7 0 -7 -7 -17 -13 -22 -13 -4
0 -5 6 -1 13 4 6 -1 4 -12 -5 -18 -16 -22 -16 -36 -2 -12 12 -17 13 -23 3 -6
-8 -4 -10 5 -4 9 6 11 4 5 -5 -6 -10 -11 -9 -21 5 -7 10 -11 22 -8 26 6 10 0
12 -9 3z"/>
<path d="M1776 2287 c3 -10 9 -15 12 -12 3 3 0 11 -7 18 -10 9 -11 8 -5 -6z"/>
<path d="M1896 2287 c3 -10 9 -15 12 -12 3 3 0 11 -7 18 -10 9 -11 8 -5 -6z"/>
<path d="M4240 2240 c-9 -6 -10 -10 -3 -10 6 0 15 5 18 10 8 12 4 12 -15 0z"/>
<path d="M4156 2218 c3 -5 10 -6 15 -3 13 9 11 12 -6 12 -8 0 -12 -4 -9 -9z"/>
<path d="M4195 2221 c-3 -5 -2 -12 3 -15 5 -3 9 1 9 9 0 17 -3 19 -12 6z"/>
<path d="M4293 2211 c0 -11 5 -18 9 -15 4 3 5 11 1 19 -7 21 -12 19 -10 -4z"/>
<path d="M276 2202 c-3 -5 -19 -7 -36 -6 -24 2 -29 -1 -20 -11 8 -10 8 -15 -1
-21 -8 -4 -9 -3 -5 4 4 7 3 12 -2 12 -5 0 -9 -18 -8 -39 0 -22 4 -38 7 -35 8
5 4 -55 -5 -63 -3 -3 -1 -12 5 -20 9 -10 8 -13 -2 -13 -11 0 -11 -2 1 -10 8
-5 10 -10 4 -10 -11 0 -11 -40 0 -59 4 -5 2 -12 -3 -15 -10 -6 -6 -51 6 -69 3
-6 1 -7 -5 -3 -7 4 -12 3 -12 -3 0 -5 5 -13 11 -17 8 -5 6 -10 -5 -16 -11 -6
-14 -14 -8 -21 5 -7 9 -25 8 -42 -1 -16 2 -38 7 -49 6 -11 5 -16 0 -13 -5 4
-10 0 -10 -8 0 -8 4 -12 9 -9 4 3 8 0 8 -5 0 -6 -4 -11 -10 -11 -5 0 -10 -7
-10 -16 0 -8 4 -13 9 -10 9 6 7 -51 -3 -61 -3 -3 -1 -12 5 -20 9 -10 8 -13 -2
-13 -11 0 -11 -2 1 -10 8 -5 10 -10 4 -10 -8 0 -9 -11 -4 -35 5 -20 4 -33 -1
-29 -5 3 -9 1 -9 -5 0 -5 5 -13 11 -17 8 -5 6 -10 -5 -16 -12 -7 -14 -13 -8
-21 6 -7 10 -35 9 -63 0 -28 3 -56 6 -61 4 -6 0 -14 -9 -17 -12 -5 -13 -10 -6
-19 6 -7 9 -29 7 -50 -1 -20 0 -35 5 -32 9 5 5 -53 -4 -62 -3 -3 -1 -12 5 -20
9 -10 8 -13 -2 -13 -11 0 -11 -2 1 -10 8 -5 10 -10 4 -10 -11 0 -11 -40 0 -59
4 -5 2 -12 -3 -15 -10 -6 -6 -51 6 -69 3 -6 1 -7 -5 -3 -7 4 -12 3 -12 -3 0
-5 5 -13 11 -17 8 -5 6 -10 -5 -16 -11 -6 -14 -14 -8 -21 5 -7 9 -25 8 -42 -1
-16 2 -38 7 -49 6 -11 5 -16 0 -13 -5 4 -10 0 -10 -8 0 -8 4 -12 9 -9 4 3 8 0
8 -5 0 -6 -4 -11 -10 -11 -5 0 -10 -7 -10 -16 0 -8 4 -13 9 -10 9 6 7 -51 -3
-61 -3 -3 -1 -12 5 -20 9 -10 8 -13 -2 -13 -11 0 -11 -2 1 -10 8 -5 10 -10 5
-10 -6 0 -11 -9 -11 -20 0 -11 5 -20 11 -20 5 0 3 -5 -5 -10 -13 -9 -13 -10 0
-10 12 0 12 -2 2 -8 -7 -5 -10 -16 -6 -25 3 -9 10 -14 15 -11 5 3 9 0 9 -7 0
-8 5 -7 17 2 11 10 14 10 9 2 -4 -7 -3 -13 3 -13 5 0 12 6 14 13 4 9 6 8 6 -2
1 -10 4 -11 15 -2 10 8 16 9 21 1 3 -6 12 -7 18 -3 17 11 87 10 94 0 3 -5 9
-3 14 4 6 10 9 11 9 2 0 -7 5 -13 11 -13 5 0 8 4 5 8 -6 10 25 9 42 -2 6 -4
16 -5 21 -2 10 7 21 56 12 56 -8 0 -5 85 3 99 4 6 2 11 -5 11 -9 0 -10 3 -3
10 6 6 7 35 4 70 -3 35 -2 64 4 70 7 7 5 10 -4 10 -9 0 -11 3 -4 10 6 6 7 35
4 70 -3 35 -2 64 4 70 7 7 5 10 -4 10 -9 0 -11 3 -4 10 6 6 7 35 4 70 -3 35
-2 64 4 70 7 7 6 10 -3 10 -7 0 -9 5 -5 12 10 15 11 78 1 78 -4 0 -3 9 3 20 6
11 7 20 3 20 -10 0 -8 83 1 99 4 6 2 11 -4 11 -6 0 -8 5 -5 11 10 15 13 59 5
59 -4 0 -4 15 0 34 4 18 4 40 -1 48 -4 7 -4 20 1 27 11 18 26 -25 32 -91 1
-16 6 -28 11 -28 4 0 5 -4 2 -10 -3 -5 -3 -15 1 -22 4 -7 9 -24 10 -38 1 -14
7 -40 13 -59 6 -19 8 -38 5 -42 -3 -5 -1 -9 4 -9 6 0 10 -6 9 -12 -1 -36 4
-49 16 -42 9 6 9 5 0 -8 -7 -8 -11 -17 -9 -19 5 -5 17 -55 18 -76 1 -7 4 -13
8 -13 4 0 6 -10 5 -22 -1 -13 5 -34 13 -47 8 -13 9 -20 3 -17 -6 4 -11 2 -11
-3 0 -6 4 -11 9 -11 5 0 11 -9 14 -20 3 -11 0 -20 -6 -20 -6 0 -2 -7 9 -16 10
-8 13 -13 7 -9 -15 7 -18 -11 -3 -20 6 -4 7 -11 4 -17 -5 -7 2 -9 19 -6 15 3
28 1 30 -5 2 -7 9 -7 22 0 12 7 28 8 42 2 14 -5 23 -5 23 1 0 6 9 6 24 0 13
-5 27 -6 30 -2 4 3 22 5 40 4 31 -2 33 -1 31 27 -1 18 2 28 9 25 7 -3 12 12
14 38 3 61 8 83 19 81 4 -1 7 16 6 38 -1 22 3 39 9 39 6 0 6 6 -2 16 -11 12
-11 15 0 12 7 -2 15 3 18 11 3 10 0 11 -9 5 -11 -6 -12 -5 -3 7 6 8 10 22 9
32 -2 9 1 17 7 17 6 0 8 7 4 15 -3 8 -2 15 2 15 5 0 8 10 9 23 0 31 6 51 18
59 6 5 5 8 -2 8 -7 0 -13 5 -13 11 0 5 5 7 10 4 10 -6 12 5 13 53 0 12 3 22 7
22 4 0 10 9 13 20 3 13 1 18 -6 13 -8 -4 -8 -2 0 9 7 8 10 18 6 21 -3 4 -2 7
4 7 6 0 9 11 8 25 -2 14 1 25 6 25 11 0 10 7 12 -243 1 -125 -2 -197 -8 -197
-5 0 -3 -5 5 -10 8 -5 10 -10 4 -10 -8 0 -9 -11 -4 -35 5 -21 4 -35 -2 -35 -5
0 -6 -5 -2 -11 10 -16 10 -469 0 -469 -5 0 -4 -6 1 -12 6 -7 9 -21 8 -31 -3
-15 -1 -16 13 -5 12 10 14 10 8 1 -4 -7 -3 -13 3 -13 5 0 13 4 16 10 4 6 16 4
31 -6 23 -16 24 -16 17 2 -6 16 -5 17 9 6 13 -10 17 -10 21 0 4 11 6 11 6 0 1
-10 6 -10 22 -1 15 8 19 8 15 0 -4 -6 -2 -11 3 -11 6 0 11 6 11 13 0 9 3 8 9
-2 6 -9 11 -10 15 -2 5 7 15 6 32 -5 21 -15 24 -15 18 -1 -4 11 0 14 13 12 10
-2 18 -4 18 -5 0 -1 8 -3 18 -5 14 -3 20 4 16 18 0 1 4 14 10 30 6 15 7 27 2
27 -9 0 -8 31 3 48 4 6 4 12 -1 12 -10 0 -9 52 1 68 4 7 3 12 -1 12 -11 0 -10
41 1 59 5 8 3 17 -5 21 -10 7 -10 11 0 24 8 10 9 16 3 16 -12 0 -10 39 2 59 5
8 3 16 -5 21 -10 7 -10 11 0 24 8 10 9 16 3 16 -12 0 -10 39 2 59 5 7 4 16 -1
20 -11 7 -10 51 1 69 4 7 3 12 -3 12 -7 0 -7 8 -1 26 13 32 13 37 -1 28 -8 -5
-8 -1 0 13 6 11 8 23 5 26 -10 10 7 48 18 41 7 -4 8 -2 4 4 -4 6 -12 9 -19 6
-8 -3 -13 4 -13 20 0 14 4 22 8 20 5 -3 5 -10 2 -16 -4 -6 -2 -8 4 -5 12 8 4
47 -10 47 -5 0 -6 5 -3 10 4 6 10 8 15 5 5 -3 12 0 16 6 4 7 3 9 -4 5 -6 -3
-13 -2 -17 3 -3 5 2 14 11 19 15 8 15 10 0 15 -10 4 -15 3 -11 -3 3 -6 1 -10
-5 -10 -7 0 -9 7 -6 16 3 9 6 17 6 20 0 2 6 2 13 0 6 -1 9 -1 5 1 -5 3 -8 11
-8 19 0 9 5 12 12 8 7 -4 8 -3 4 5 -6 9 -11 9 -24 -1 -14 -11 -15 -10 -9 5 4
10 7 21 7 23 0 3 4 2 10 -1 6 -4 7 1 3 11 -5 13 -3 15 8 9 12 -8 12 -6 0 8
-15 18 -26 23 -16 7 3 -5 2 -10 -3 -10 -10 0 -8 62 2 78 2 4 1 14 -4 22 -4 7
-4 24 0 36 6 14 5 26 0 29 -5 3 -7 12 -4 20 4 8 10 12 15 9 5 -3 6 2 3 10 -3
9 -10 13 -15 10 -5 -3 -6 2 -3 10 3 8 11 14 17 12 7 -1 9 -1 5 1 -5 3 -8 11
-8 19 0 9 5 12 12 8 7 -4 8 -3 4 5 -6 9 -11 9 -24 -1 -14 -11 -15 -10 -9 5 4
10 7 21 7 23 0 3 4 2 10 -1 6 -4 7 1 3 11 -5 13 -3 15 8 9 12 -8 12 -6 0 8
-15 18 -26 23 -16 7 3 -5 1 -10 -5 -10 -7 0 -9 7 -6 16 3 9 6 21 6 27 0 7 4 6
10 -3 7 -10 10 -11 10 -2 0 7 -7 15 -15 18 -8 4 -12 10 -9 15 3 5 10 6 16 3 6
-4 4 3 -5 16 -11 16 -13 29 -7 46 6 14 6 24 1 24 -5 0 -8 8 -6 18 2 9 4 21 4
25 1 5 7 5 14 2 6 -4 3 0 -7 9 -16 13 -17 18 -6 31 8 9 8 15 2 15 -12 0 -10
39 2 59 5 7 4 16 -1 20 -11 7 -11 40 1 59 4 6 3 12 -3 12 -6 0 -8 6 -5 13 3 8
-2 20 -11 27 -8 7 -15 8 -15 3 0 -5 -7 -10 -15 -10 -8 0 -15 5 -15 11 0 7 -3
8 -8 1 -9 -13 -82 -15 -82 -3 0 5 -6 6 -12 2 -19 -12 -48 -12 -48 0 0 5 -7 1
-16 -10 -8 -10 -13 -14 -10 -8 3 7 -3 14 -14 17 -11 3 -20 1 -20 -4 0 -11 -23
-7 -32 6 -5 7 -8 7 -8 0 0 -14 -60 -15 -60 -1 0 7 -4 6 -9 -2 -4 -8 -12 -14
-17 -15 -5 -1 -8 -8 -8 -14 1 -7 -2 -13 -8 -13 -5 0 -6 -4 -3 -10 3 -5 2 -10
-2 -10 -5 0 -9 -8 -10 -17 -3 -46 -8 -63 -18 -63 -5 0 -3 -5 5 -10 10 -6 11
-10 2 -10 -6 0 -11 -3 -11 -7 5 -29 -2 -53 -13 -47 -10 6 -10 5 -1 -7 7 -9 9
-19 4 -25 -5 -5 -11 -22 -13 -39 -1 -16 -7 -33 -13 -37 -6 -5 -5 -8 3 -8 7 0
10 -5 7 -10 -4 -6 -9 -8 -13 -6 -4 2 -8 -10 -9 -27 -5 -72 -8 -95 -14 -91 -4
2 -9 -3 -13 -11 -3 -8 0 -15 6 -15 7 0 7 -4 -1 -13 -6 -8 -9 -23 -6 -35 2 -12
-1 -25 -7 -28 -7 -5 -8 -2 -3 7 5 8 4 10 0 6 -5 -4 -10 -20 -11 -35 -3 -38
-11 -73 -22 -102 -5 -14 -8 -33 -7 -42 2 -10 -1 -20 -6 -24 -14 -8 -11 -26 4
-19 6 4 5 0 -4 -7 -9 -7 -17 -22 -17 -33 1 -39 -2 -46 -14 -39 -9 5 -9 3 1 -9
11 -14 11 -18 -4 -23 -13 -5 -14 -9 -3 -15 10 -7 11 -9 0 -9 -7 0 -10 -5 -6
-12 4 -7 3 -8 -5 -4 -6 4 -9 12 -6 17 4 5 3 9 -2 9 -4 0 -9 19 -10 41 0 23 -7
45 -13 49 -9 6 -9 9 1 13 10 4 10 6 2 6 -8 1 -13 15 -13 37 0 19 -4 33 -9 29
-5 -3 -12 -1 -15 4 -4 5 -1 13 5 17 8 5 9 3 4 -7 -5 -8 -4 -10 0 -6 12 10 15
38 4 31 -9 -5 -12 9 -12 49 0 9 -4 17 -10 17 -5 0 -3 8 4 17 9 11 10 14 2 10
-14 -9 -29 35 -18 52 3 6 2 11 -4 11 -6 0 -9 13 -7 30 2 16 -1 27 -5 24 -9 -5
-10 -2 -13 34 -1 9 -5 23 -9 30 -5 6 -5 17 -2 22 3 6 2 10 -3 10 -5 0 -8 10
-7 23 1 12 -5 33 -13 46 -8 13 -10 21 -4 17 5 -3 3 12 -4 34 -8 22 -11 46 -8
55 4 8 1 15 -6 15 -7 0 -10 8 -7 20 3 11 1 20 -5 20 -6 0 -8 9 -5 20 3 11 1
20 -5 20 -6 0 -8 7 -5 15 4 8 2 17 -4 21 -6 4 -6 11 2 20 9 11 8 15 -5 20 -9
3 -16 13 -16 22 0 8 -3 12 -6 9 -4 -3 -14 -2 -24 3 -10 5 -20 6 -24 3 -12 -12
-61 -11 -68 1 -6 8 -10 7 -17 -2 -4 -8 -12 -14 -16 -14 -4 0 -12 6 -16 14 -5
7 -9 8 -9 3 0 -6 -18 -11 -40 -11 -22 0 -40 4 -40 9 0 6 -5 6 -12 0 -15 -11
-28 -11 -45 0 -6 4 -14 4 -17 -1z m861 -688 c-3 -3 -12 -4 -19 -1 -8 3 -5 6 6
6 11 1 17 -2 13 -5z"/>
<path d="M3959 2153 c-13 -16 -12 -17 4 -4 16 13 21 21 13 21 -2 0 -10 -8 -17
-17z"/>
<path d="M3994 2136 c1 -8 5 -18 8 -22 4 -3 5 1 4 10 -1 8 -5 18 -8 22 -4 3
-5 -1 -4 -10z"/>
<path d="M4076 2141 c-3 -5 2 -15 12 -22 15 -12 16 -12 5 2 -7 9 -10 19 -6 22
3 4 4 7 0 7 -3 0 -8 -4 -11 -9z"/>
<path d="M4234 2120 c0 -13 4 -16 10 -10 7 7 7 13 0 20 -6 6 -10 3 -10 -10z"/>
<path d="M1591 2083 c-1 -17 16 -25 25 -12 4 7 3 9 -4 5 -5 -3 -13 0 -15 6 -4
9 -6 10 -6 1z"/>
<path d="M4147 2079 c7 -7 15 -10 18 -7 3 3 -2 9 -12 12 -14 6 -15 5 -6 -5z"/>
<path d="M4235 2079 c-3 -4 2 -6 10 -5 21 3 28 13 10 13 -9 0 -18 -4 -20 -8z"/>
<path d="M4155 2050 c-4 -6 -11 -7 -17 -4 -7 4 -8 2 -4 -5 6 -9 11 -9 22 0 14
11 18 19 10 19 -3 0 -8 -5 -11 -10z"/>
<path d="M4036 2033 c-6 -14 -5 -15 5 -6 7 7 10 15 7 18 -3 3 -9 -2 -12 -12z"/>
<path d="M4185 2020 c-3 -6 1 -7 9 -4 18 7 21 14 7 14 -6 0 -13 -4 -16 -10z"/>
<path d="M1576 2007 c3 -10 9 -15 12 -12 3 3 0 11 -7 18 -10 9 -11 8 -5 -6z"/>
<path d="M4319 2007 c8 -9 16 -15 19 -12 3 3 12 -1 21 -8 14 -11 14 -10 2 6
-8 9 -16 15 -19 12 -3 -3 -12 1 -21 8 -14 11 -14 10 -2 -6z"/>
<path d="M4225 1999 c-3 -4 2 -6 10 -5 21 3 28 13 10 13 -9 0 -18 -4 -20 -8z"/>
<path d="M4280 1980 c-9 -6 -10 -10 -3 -10 6 0 15 5 18 10 8 12 4 12 -15 0z"/>
<path d="M1510 1961 c0 -6 4 -13 10 -16 6 -3 7 1 4 9 -7 18 -14 21 -14 7z"/>
<path d="M4155 1951 c-3 -5 -2 -12 3 -15 5 -3 9 1 9 9 0 17 -3 19 -12 6z"/>
<path d="M1596 1942 c-3 -5 1 -9 9 -9 8 0 12 4 9 9 -3 4 -7 8 -9 8 -2 0 -6 -4
-9 -8z"/>
<path d="M1709 1923 c-12 -16 -12 -17 2 -6 9 7 20 9 24 5 5 -4 5 -1 1 6 -9 16
-11 15 -27 -5z"/>
<path d="M1496 1918 c3 -4 11 -5 19 -1 21 7 19 12 -4 10 -11 0 -18 -5 -15 -9z"/>
<path d="M4215 1920 c-2 -3 5 -6 15 -7 11 -1 22 2 24 5 3 4 -4 8 -15 8 -11 0
-22 -3 -24 -6z"/>
<path d="M4386 1918 c3 -5 10 -6 15 -3 13 9 11 12 -6 12 -8 0 -12 -4 -9 -9z"/>
<path d="M4153 1907 c0 -8 6 -14 14 -14 9 0 10 4 2 14 -6 7 -12 13 -14 13 -1
0 -2 -6 -2 -13z"/>
<path d="M1733 1890 c-1 -11 2 -22 6 -24 4 -3 7 4 6 14 -2 27 -10 33 -12 10z"/>
<path d="M3410 1901 c0 -6 4 -13 10 -16 6 -3 7 1 4 9 -7 18 -14 21 -14 7z"/>
<path d="M1634 1886 c1 -8 5 -18 8 -22 4 -3 5 1 4 10 -1 8 -5 18 -8 22 -4 3
-5 -1 -4 -10z"/>
<path d="M3473 1875 c0 -8 4 -12 9 -9 5 3 6 10 3 15 -9 13 -12 11 -12 -6z"/>
<path d="M3986 1882 c-3 -5 1 -9 9 -9 8 0 12 4 9 9 -3 4 -7 8 -9 8 -2 0 -6 -4
-9 -8z"/>
<path d="M3393 1865 c0 -8 4 -12 9 -9 5 3 6 10 3 15 -9 13 -12 11 -12 -6z"/>
<path d="M1460 1865 c0 -2 6 -8 13 -14 10 -8 14 -7 14 2 0 8 -6 14 -14 14 -7
0 -13 -1 -13 -2z"/>
<path d="M4246 1858 c3 -5 10 -6 15 -3 13 9 11 12 -6 12 -8 0 -12 -4 -9 -9z"/>
<path d="M3346 1842 c-2 -4 4 -8 14 -8 10 0 16 4 14 8 -3 4 -9 8 -14 8 -5 0
-11 -4 -14 -8z"/>
<path d="M1654 1815 c-5 -11 -10 -13 -19 -5 -10 8 -12 1 -8 -36 3 -35 1 -44
-9 -38 -10 6 -10 4 -2 -7 6 -8 10 -30 10 -49 -1 -19 2 -41 7 -48 7 -9 5 -11
-8 -6 -14 6 -16 4 -8 -12 6 -10 9 -35 9 -54 -1 -19 2 -41 7 -48 7 -9 6 -11 -6
-6 -12 4 -14 1 -10 -15 3 -11 10 -18 16 -14 6 3 7 1 3 -6 -8 -13 -8 -1019 0
-1033 3 -5 13 -3 22 4 14 11 15 10 8 -6 -7 -19 -6 -19 13 -2 14 12 21 14 26 6
6 -9 10 -9 16 1 6 10 9 11 9 2 0 -7 5 -13 11 -13 5 0 8 4 5 8 -2 4 4 8 14 8
10 0 16 -4 14 -8 -3 -4 0 -8 5 -8 6 0 11 6 11 13 0 9 3 8 9 -2 6 -9 11 -10 15
-2 5 7 15 6 32 -5 23 -16 24 -16 17 2 -6 17 -5 17 10 5 14 -11 17 -11 17 0 0
10 2 11 8 2 5 -8 13 -9 22 -3 9 5 19 5 28 -2 9 -8 18 -6 33 10 13 14 15 22 7
22 -8 0 -9 3 -3 8 6 4 10 16 10 27 0 11 -4 23 -10 27 -6 5 -5 8 4 8 11 0 11 3
1 15 -7 8 -9 15 -4 15 5 0 10 11 10 25 1 14 -1 23 -5 21 -4 -3 -7 4 -7 15 0
10 3 19 7 19 10 0 5 34 -6 42 -6 5 -5 8 4 8 11 0 11 3 1 15 -7 8 -9 15 -4 15
5 0 10 11 10 25 1 14 -1 23 -5 21 -4 -3 -7 4 -7 15 0 10 3 19 7 19 10 0 5 34
-6 42 -6 5 -5 8 4 8 11 0 11 3 1 15 -7 8 -9 15 -4 15 5 0 10 11 10 25 1 14 -1
23 -5 21 -4 -3 -7 4 -7 15 0 10 3 19 7 19 10 0 5 34 -6 42 -6 5 -5 8 4 8 11 0
11 3 1 15 -7 8 -9 15 -4 15 5 0 10 11 10 25 1 14 -1 23 -5 21 -4 -3 -7 4 -7
15 0 10 4 19 8 19 4 0 3 12 -2 26 -6 14 -6 23 -2 20 4 -2 7 24 7 59 0 35 -3
61 -7 58 -5 -2 -8 1 -8 6 0 6 6 11 13 11 8 0 7 4 -3 10 -8 5 -10 10 -4 10 11
0 11 40 0 59 -4 5 -2 12 3 15 10 6 7 88 -4 106 -3 5 -1 10 6 10 8 0 8 4 -1 15
-10 12 -10 15 1 15 11 0 11 2 -1 10 -8 5 -10 10 -4 10 10 0 11 21 4 55 -1 6
-1 12 0 15 6 12 4 138 -2 134 -3 -2 -4 4 -1 15 4 14 0 18 -19 17 -12 0 -26 -5
-30 -11 -5 -7 -8 -7 -8 0 0 6 -13 11 -30 11 -18 1 -27 -2 -23 -9 4 -6 1 -7 -8
-1 -8 5 -34 10 -59 10 -25 1 -55 2 -68 3 -15 1 -21 5 -17 14 4 6 0 4 -8 -5
-15 -18 -33 -25 -23 -9 4 5 -4 7 -16 3 -14 -3 -19 -2 -14 6 4 7 5 12 1 12 -3
0 -8 -7 -11 -15z"/>
<path d="M4720 1816 c-14 -8 -28 -12 -32 -10 -5 3 -8 0 -8 -6 0 -6 -4 -8 -10
-5 -5 3 -10 1 -10 -4 0 -6 -6 -11 -14 -11 -8 0 -18 -9 -21 -20 -3 -11 -13 -20
-21 -20 -8 0 -14 -5 -14 -11 0 -7 -8 -18 -17 -26 -10 -8 -12 -12 -5 -8 6 3 12
1 12 -4 0 -6 -5 -11 -11 -11 -5 0 -7 -4 -4 -10 3 -5 1 -10 -5 -10 -6 0 -8 -5
-4 -12 5 -9 3 -9 -9 1 -9 7 -14 18 -10 23 8 14 7 117 -1 126 -11 11 -106 10
-99 -1 4 -6 1 -7 -8 -1 -21 13 -120 14 -112 1 4 -6 1 -7 -8 -1 -8 5 -21 9 -29
9 -8 0 -20 3 -25 7 -6 4 -17 3 -25 -2 -7 -4 -20 -6 -28 -3 -12 5 -14 -2 -10
-35 2 -23 1 -42 -2 -42 -3 0 -3 -27 0 -60 5 -50 3 -60 -10 -61 -10 0 -11 -2
-2 -6 7 -3 12 -24 12 -54 0 -28 -4 -48 -8 -45 -4 2 -9 -4 -9 -15 -1 -10 3 -19
8 -19 6 0 7 5 3 12 -5 7 -3 8 6 3 10 -6 9 -11 -5 -22 -11 -7 -14 -13 -7 -13 6
0 11 -11 10 -25 -1 -14 -7 -25 -13 -25 -5 0 -3 -5 5 -10 8 -5 11 -10 6 -10 -5
0 -3 -6 3 -14 10 -11 8 -17 -6 -25 -10 -6 -13 -11 -5 -11 14 0 12 -36 -2 -59
-7 -10 -6 -12 4 -6 8 5 11 4 6 -3 -3 -6 -1 -14 5 -18 9 -5 7 -11 -6 -21 -12
-8 -14 -13 -6 -13 8 0 11 -7 8 -19 -2 -10 0 -26 6 -36 6 -12 6 -16 0 -12 -10
6 -9 -39 1 -111 2 -15 -2 -22 -13 -22 -10 0 -12 -3 -5 -8 7 -4 13 -31 15 -60
3 -41 1 -52 -11 -53 -10 0 -11 -2 -2 -6 6 -2 12 -13 12 -24 0 -10 -6 -19 -12
-20 -7 0 -4 -4 7 -9 11 -5 15 -9 10 -9 -7 -1 -8 -25 -5 -66 5 -54 3 -65 -10
-65 -10 0 -11 -3 -4 -8 7 -4 13 -31 15 -60 3 -41 1 -52 -11 -52 -10 0 -11 -3
-4 -8 6 -4 12 -27 12 -53 1 -49 19 -111 22 -74 1 11 4 14 7 8 3 -9 10 -10 23
-3 13 7 21 7 26 -1 4 -8 9 -7 15 2 6 10 9 11 9 2 0 -7 5 -13 11 -13 5 0 8 4 5
8 -2 4 4 8 14 8 10 0 16 -4 14 -8 -3 -4 0 -8 5 -8 6 0 11 6 11 13 0 9 3 8 9
-2 6 -9 11 -10 15 -2 5 7 15 6 32 -5 23 -16 24 -16 17 2 -6 17 -5 17 10 5 14
-11 17 -11 17 0 0 10 2 11 8 2 5 -8 13 -9 22 -3 9 5 19 5 27 -2 15 -12 46 8
40 26 -3 6 0 19 5 30 6 11 6 16 0 13 -10 -7 -9 63 1 80 4 7 3 15 -3 18 -8 5
-8 11 0 20 8 10 8 15 0 20 -8 5 -8 11 -1 19 6 7 8 15 5 19 -10 10 -12 57 -2
63 5 3 4 11 -2 19 -8 10 -8 15 0 20 8 5 8 10 0 20 -8 9 -8 15 0 20 6 3 8 11 4
16 -10 17 -12 59 -2 65 5 3 4 11 -2 19 -8 10 -8 15 0 20 8 5 8 10 0 20 -8 9
-8 15 0 20 6 3 8 11 4 16 -10 17 -12 59 -2 65 5 3 4 11 -2 19 -8 10 -8 15 0
20 8 5 8 10 0 20 -7 9 -8 15 -1 19 6 4 7 15 2 29 -6 14 -5 30 1 41 8 14 7 17
-1 12 -6 -4 -11 -3 -11 3 0 5 5 13 10 16 8 5 8 11 0 20 -8 9 -6 14 6 19 12 5
13 10 6 19 -7 8 -7 18 -2 27 5 8 6 18 4 22 -3 5 0 7 8 6 7 -2 12 2 11 9 -2 6
6 15 17 18 11 4 20 10 20 13 0 9 38 14 90 13 61 0 100 9 100 24 0 8 -6 15 -12
15 -8 0 -9 3 -3 8 15 11 17 52 2 52 -8 0 -7 4 3 10 12 8 13 11 1 19 -11 7 -11
9 0 13 12 4 11 8 -1 23 -9 11 -10 16 -2 11 6 -4 12 -3 12 1 0 5 -6 15 -12 22
-10 11 -10 13 0 7 6 -4 12 -3 12 1 0 5 -6 15 -12 22 -10 11 -10 13 0 7 6 -4
12 -3 12 1 0 5 -6 15 -12 22 -10 11 -10 13 0 7 6 -4 12 -3 12 1 0 5 -6 15 -12
22 -10 11 -10 13 0 7 6 -4 12 -3 12 1 0 5 -6 15 -12 22 -10 11 -10 13 0 7 6
-4 12 -3 12 1 0 5 -6 15 -12 22 -8 8 -8 11 -2 8 13 -7 17 40 4 48 -4 2 -22 0
-39 -5 -28 -8 -31 -7 -21 5 15 18 12 18 -20 1z"/>
<path d="M3377 1804 c4 -10 -4 -14 -26 -14 -23 0 -41 -10 -70 -39 -22 -22 -43
-36 -47 -33 -4 4 -4 2 0 -5 4 -7 -2 -18 -13 -24 -10 -7 -17 -18 -14 -24 2 -7
-3 -15 -11 -18 -9 -4 -13 -12 -10 -20 2 -7 0 -25 -5 -39 -7 -18 -6 -29 2 -37
9 -9 8 -11 -4 -6 -10 4 -16 0 -16 -9 0 -8 3 -13 7 -11 4 2 7 -2 7 -10 0 -8 -4
-12 -9 -9 -5 3 -6 -8 -3 -25 4 -21 1 -31 -7 -31 -8 0 -5 -5 5 -11 12 -7 15
-15 8 -27 -6 -11 -5 -24 1 -36 8 -14 7 -17 -1 -12 -8 5 -10 0 -7 -18 3 -14 7
-29 10 -34 2 -4 1 -14 -4 -22 -5 -8 -4 -22 2 -33 6 -12 6 -17 0 -13 -11 7 -9
-65 3 -84 6 -9 4 -11 -5 -5 -10 6 -12 4 -7 -10 4 -9 2 -25 -5 -33 -8 -9 -8
-13 -2 -9 7 4 14 -2 17 -13 3 -13 1 -18 -6 -13 -7 4 -8 0 -4 -12 4 -9 2 -25
-5 -33 -8 -9 -8 -13 -2 -9 7 4 14 -2 17 -13 3 -13 1 -18 -6 -13 -7 4 -8 0 -4
-12 4 -9 2 -25 -5 -33 -8 -9 -8 -13 -2 -9 7 4 14 -2 17 -13 3 -13 1 -18 -6
-13 -7 4 -8 0 -4 -12 4 -9 2 -25 -5 -33 -8 -9 -8 -13 -2 -9 7 4 14 -2 17 -13
3 -12 1 -18 -5 -14 -6 4 -8 -1 -3 -15 4 -14 2 -21 -6 -21 -7 0 -5 -6 6 -13 13
-10 15 -16 6 -21 -9 -6 -9 -11 0 -22 9 -11 9 -14 -1 -14 -10 0 -10 -3 0 -15 7
-8 10 -21 7 -29 -3 -8 -3 -17 0 -20 4 -3 8 -18 9 -33 2 -14 9 -30 16 -34 7 -5
9 -9 4 -9 -5 0 -3 -7 4 -15 7 -8 9 -15 6 -15 -4 0 10 -17 31 -37 21 -21 41
-37 45 -36 5 2 8 -2 8 -7 0 -6 9 -10 21 -10 11 0 18 -4 15 -8 -3 -5 11 -9 31
-10 19 -1 42 -7 51 -14 9 -7 13 -8 10 -3 -4 6 2 11 13 11 10 0 19 -5 19 -11 0
-5 5 -3 10 5 8 12 10 12 10 1 0 -10 3 -11 14 -2 10 8 16 9 21 1 3 -6 12 -7 18
-3 17 11 87 10 94 0 3 -5 9 -3 14 4 6 10 9 11 9 2 0 -7 5 -13 11 -13 5 0 8 4
5 8 -6 10 30 9 40 -1 11 -10 26 -8 20 2 -7 11 13 9 32 -2 7 -5 12 -3 12 5 0 9
3 9 10 -2 5 -8 10 -10 10 -4 0 7 16 11 41 10 26 -1 43 3 46 11 3 7 11 13 18
13 8 0 21 7 29 16 9 8 16 13 16 10 0 -16 69 73 71 91 0 5 5 13 10 19 5 6 7 19
3 28 -4 11 -2 15 7 11 11 -4 14 17 16 107 3 134 -2 165 -22 148 -10 -8 -15 -8
-20 1 -6 8 -10 7 -16 -2 -8 -12 -11 -12 -18 0 -8 12 -12 12 -24 2 -11 -9 -17
-9 -22 0 -6 8 -10 7 -16 -2 -8 -12 -11 -12 -18 0 -8 12 -12 12 -24 2 -11 -9
-17 -9 -22 0 -6 8 -10 7 -17 -2 -8 -11 -11 -11 -15 -1 -4 10 -8 10 -21 0 -12
-10 -14 -10 -8 -1 4 7 3 13 -3 13 -5 0 -12 -6 -15 -12 -5 -10 -7 -10 -12 0 -5
10 -9 10 -20 1 -11 -9 -14 -8 -14 2 0 8 -6 5 -14 -7 -8 -10 -11 -21 -8 -24 10
-7 11 -60 1 -60 -4 0 -6 -9 -4 -20 3 -15 -2 -20 -16 -20 -14 0 -18 -4 -13 -12
5 -9 3 -9 -9 1 -9 7 -15 17 -12 21 3 5 0 12 -6 16 -7 4 -10 3 -6 -2 7 -12 -13
-38 -32 -42 -12 -3 -12 0 -1 13 11 13 10 14 -5 9 -14 -6 -16 -4 -10 6 6 9 4
11 -4 6 -7 -5 -10 -15 -7 -25 5 -12 2 -11 -9 3 -13 17 -15 18 -15 3 0 -16 -1
-16 -18 1 -12 11 -14 20 -8 24 8 5 7 8 0 8 -15 0 -24 49 -11 57 6 4 7 1 2 -8
-5 -8 -4 -10 0 -6 12 10 16 39 5 32 -5 -3 -11 -1 -14 4 -4 5 -2 12 3 15 6 4 6
18 1 36 -11 40 -11 42 7 62 12 14 19 15 30 7 10 -9 13 -8 13 2 0 12 2 12 9 0
6 -9 10 -10 16 -2 5 9 10 9 21 0 11 -9 14 -8 14 2 0 12 2 12 9 0 6 -9 10 -10
16 -2 5 9 10 9 21 0 11 -9 14 -8 14 2 0 12 2 12 9 0 6 -9 10 -10 16 -2 5 9 10
9 21 0 11 -9 14 -8 14 2 0 12 2 12 9 0 6 -9 11 -10 15 -2 4 6 13 8 19 4 17
-11 31 -10 39 2 5 6 8 5 8 -4 0 -11 3 -11 15 -1 12 10 15 10 15 0 0 -9 3 -10
13 -1 10 8 17 7 25 -1 9 -9 12 -9 12 1 0 11 3 11 15 1 12 -10 15 -10 15 1 0
12 2 12 9 0 6 -9 10 -10 16 -2 5 9 10 9 20 1 10 -8 15 -8 20 0 5 8 10 8 20 0
20 -17 23 -4 21 103 0 53 2 97 5 97 3 0 3 14 1 31 -3 18 -1 29 5 26 5 -3 9 4
10 16 0 12 -1 16 -4 10 -3 -7 -9 -13 -14 -13 -6 0 -7 5 -4 10 9 14 13 100 5
95 -3 -2 -6 5 -6 16 0 10 4 19 9 19 5 0 4 7 -3 15 -9 11 -9 15 -1 15 7 0 9 5
5 11 -4 6 -7 37 -8 69 -1 34 -7 64 -16 75 -13 17 -13 18 0 10 12 -7 13 -6 3 7
-7 8 -10 18 -6 21 3 4 1 7 -5 7 -6 0 -9 7 -6 15 4 8 1 15 -5 15 -7 0 -15 8
-18 18 -9 23 -59 69 -84 77 -10 4 -19 10 -19 15 0 4 -8 7 -17 5 -10 -1 -28 3
-40 11 -14 9 -24 10 -28 4 -4 -6 -12 -7 -18 -3 -7 5 -23 8 -37 9 -14 0 -31 4
-38 8 -7 4 -12 2 -12 -6 0 -9 -3 -9 -10 2 -7 11 -10 11 -10 2 0 -10 -5 -10
-20 -2 -13 7 -20 7 -20 1 0 -7 -9 -7 -25 -1 -16 6 -25 6 -25 -1 0 -6 -7 -6
-20 1 -15 8 -20 8 -20 -2 0 -9 -3 -9 -10 2 -5 8 -10 10 -10 4 0 -8 -11 -9 -35
-4 -24 5 -35 4 -35 -4 0 -6 -5 -4 -10 4 -7 11 -10 11 -10 2 0 -7 -5 -10 -11
-7 -21 14 -57 13 -52 -1z m207 -330 c-6 16 -4 17 14 7 17 -9 22 -9 22 1 0 9 3
9 10 -2 5 -8 10 -10 10 -4 0 6 7 11 15 11 8 0 15 -6 15 -14 0 -7 3 -12 8 -12
23 4 29 -4 26 -36 -1 -22 2 -35 9 -35 7 0 6 -4 -3 -10 -8 -5 -11 -10 -6 -10 5
0 2 -8 -5 -17 -12 -15 -12 -16 4 -10 14 5 16 3 9 -11 -5 -9 -7 -23 -5 -30 3
-7 -1 -20 -9 -29 -11 -14 -11 -16 2 -9 8 4 6 0 -4 -8 -14 -12 -23 -13 -33 -5
-10 9 -13 8 -13 -2 0 -10 -3 -10 -12 -1 -14 14 -32 16 -23 2 4 -7 -3 -7 -19 0
-18 6 -26 6 -26 -1 0 -6 -6 -7 -12 -2 -7 4 -20 6 -29 5 -18 -3 -36 31 -20 36
6 2 8 9 4 15 -12 20 -9 67 5 67 10 0 9 5 -3 17 -16 16 -16 17 4 25 11 4 21 10
21 12 0 3 -7 3 -15 0 -17 -7 -18 -3 -9 20 3 9 11 13 18 9 6 -4 5 1 -3 11 -12
15 -12 17 0 14 8 -2 17 -7 21 -13 4 -6 8 -1 8 9 0 20 0 20 15 0 14 -18 15 -18
9 0z"/>
<path d="M3550 1416 c0 -2 8 -10 18 -17 15 -13 16 -12 3 4 -13 16 -21 21 -21
13z"/>
<path d="M3596 1398 c3 -5 10 -6 15 -3 13 9 11 12 -6 12 -8 0 -12 -4 -9 -9z"/>
<path d="M3635 1399 c-3 -4 2 -6 10 -5 21 3 28 13 10 13 -9 0 -18 -4 -20 -8z"/>
<path d="M3633 1355 c0 -8 4 -12 9 -9 5 3 6 10 3 15 -9 13 -12 11 -12 -6z"/>
<path d="M2160 1787 c-7 -12 -7 -17 -1 -12 6 3 11 1 11 -4 0 -6 -4 -11 -8 -11
-5 0 -9 -7 -9 -15 0 -10 6 -14 16 -10 11 4 10 0 -5 -16 -10 -12 -13 -19 -6
-15 15 9 16 -6 0 -22 -9 -9 -9 -12 0 -12 7 0 12 -5 12 -11 0 -5 -4 -8 -8 -5
-11 6 -9 -34 1 -51 4 -6 1 -14 -5 -16 -10 -4 -9 -6 1 -6 11 -1 11 -4 0 -18
-12 -15 -12 -16 1 -8 13 7 13 6 2 -7 -10 -12 -10 -17 -1 -20 8 -3 9 -9 4 -18
-12 -19 -14 -50 -3 -56 4 -3 8 -10 8 -15 0 -6 -4 -8 -8 -5 -5 3 -9 -1 -9 -9 0
-8 4 -15 9 -15 4 0 8 -5 8 -11 0 -5 -6 -7 -12 -3 -9 5 -9 2 1 -9 11 -14 11
-17 0 -17 -11 0 -11 -2 1 -10 12 -8 12 -10 1 -10 -10 0 -11 -3 -2 -13 7 -10 7
-17 0 -24 -8 -8 -8 -13 0 -17 6 -4 11 -12 11 -17 0 -6 -4 -8 -8 -5 -5 3 -9 -1
-9 -9 0 -8 4 -15 9 -15 4 0 8 -5 8 -11 0 -5 -6 -7 -12 -3 -9 5 -9 2 1 -9 11
-14 11 -17 0 -17 -11 0 -11 -2 1 -10 12 -8 12 -10 1 -10 -10 0 -11 -3 -2 -13
8 -10 7 -17 -2 -27 -9 -10 -9 -11 1 -6 15 9 16 -6 0 -22 -9 -9 -9 -12 0 -12 7
0 12 -5 12 -11 0 -5 -4 -8 -8 -5 -4 2 -8 -4 -8 -14 0 -10 4 -16 8 -14 12 8 9
-11 -4 -24 -9 -9 -9 -12 0 -12 7 0 12 -5 12 -11 0 -5 -4 -8 -8 -5 -5 3 -9 -1
-9 -9 0 -8 3 -12 7 -10 10 6 7 -40 -4 -47 -7 -5 -7 -8 2 -8 10 0 10 -5 1 -21
-8 -15 -8 -19 0 -15 15 10 14 -7 -1 -22 -9 -9 -9 -12 0 -12 7 0 12 -5 12 -11
0 -5 -4 -8 -8 -5 -4 2 -8 -4 -8 -14 0 -10 4 -16 8 -14 12 8 9 -11 -4 -24 -9
-9 -9 -12 0 -12 7 0 12 -5 12 -11 0 -5 -4 -8 -8 -5 -4 2 -8 -4 -8 -14 0 -10 4
-16 8 -14 12 8 9 -11 -4 -24 -9 -9 -9 -12 0 -12 7 0 12 -5 12 -11 0 -5 -4 -8
-8 -5 -5 3 -9 -1 -9 -9 0 -8 3 -12 7 -10 10 6 7 -40 -4 -47 -7 -5 -7 -8 2 -8
10 0 10 -5 1 -21 -8 -15 -8 -19 0 -15 15 10 14 -7 -1 -22 -9 -9 -9 -12 0 -12
7 0 12 -5 12 -11 0 -5 -3 -8 -8 -6 -4 3 -7 -8 -7 -23 -1 -16 3 -26 7 -24 4 3
8 0 8 -5 0 -6 -5 -11 -11 -11 -6 0 -3 -7 6 -16 9 -9 19 -14 22 -10 3 3 12 1
20 -5 10 -9 13 -8 13 2 0 12 2 12 9 0 6 -8 14 -10 22 -5 19 11 89 12 96 1 3
-5 9 -3 14 4 6 10 9 11 9 2 0 -7 5 -13 11 -13 5 0 8 4 5 8 -2 4 4 8 14 8 10 0
16 -4 14 -8 -3 -4 -1 -8 5 -8 5 0 12 6 14 13 4 9 6 9 6 -1 1 -8 6 -10 14 -5
18 11 38 13 31 2 -7 -12 3 -11 25 1 18 9 20 50 6 87 -2 7 -1 13 3 13 4 0 7 11
7 25 0 14 -4 25 -9 25 -5 0 -3 7 4 15 7 8 8 15 3 15 -5 0 -9 9 -9 20 0 11 3
20 6 20 3 0 5 12 4 28 -1 15 -3 27 -4 27 -1 0 -2 15 -3 33 -1 17 0 32 3 32 3
0 5 11 5 25 0 14 -4 25 -9 25 -5 0 -3 7 4 15 7 8 8 15 3 15 -5 0 -9 9 -9 20 0
11 3 20 6 20 3 0 5 12 4 28 -1 15 -3 27 -4 27 -1 0 -2 15 -3 33 -1 17 0 32 3
32 3 0 5 11 5 25 0 14 -4 25 -9 25 -5 0 -3 7 4 15 7 8 8 15 3 15 -5 0 -9 9 -9
20 0 11 3 20 6 20 3 0 5 12 4 28 -1 15 -3 27 -4 27 -1 0 -2 15 -3 33 -1 17 0
32 3 32 3 0 5 11 5 25 0 14 -4 25 -9 25 -5 0 -3 7 4 15 7 8 8 15 3 15 -5 0 -9
9 -9 20 0 11 4 20 8 20 4 0 5 9 3 20 -2 11 0 20 6 20 5 0 8 3 8 8 -3 20 3 28
26 30 13 1 28 2 32 3 21 4 43 -2 56 -15 11 -12 13 -97 13 -509 -1 -272 2 -493
7 -490 4 2 7 -2 7 -9 0 -9 3 -9 10 2 7 11 10 11 10 2 0 -9 5 -10 19 -2 14 7
22 7 27 -1 4 -8 9 -7 15 2 6 10 9 11 9 2 0 -7 5 -13 11 -13 5 0 8 4 5 8 -2 4
4 8 14 8 10 0 16 -4 14 -8 -3 -4 -1 -8 5 -8 5 0 12 6 14 13 4 9 6 8 6 -2 1
-10 4 -11 15 -2 10 8 16 9 21 1 3 -6 12 -7 18 -3 20 12 67 10 57 -2 -6 -7 -3
-11 9 -11 13 0 17 5 13 16 -4 12 -2 13 8 3 11 -10 16 -9 27 5 12 16 12 15 6
-3 -6 -17 -5 -18 9 -5 8 8 14 19 12 25 -9 26 -10 85 -1 85 5 0 4 7 -3 15 -8 9
-8 15 -2 15 7 0 8 10 2 30 -6 21 -5 30 3 31 7 0 3 4 -8 9 -18 8 -18 9 -2 9 15
1 16 5 7 21 -6 12 -7 20 -1 20 6 0 6 11 1 30 -6 21 -5 30 3 31 7 0 3 4 -8 9
-18 8 -18 9 -2 9 15 1 16 5 7 21 -7 13 -7 20 -1 20 7 0 7 9 1 25 -7 17 -6 25
1 25 8 0 7 5 -1 15 -8 9 -8 15 -2 15 7 0 8 10 2 30 -6 21 -5 30 3 31 7 0 3 4
-8 9 -18 8 -18 9 -2 9 15 1 16 5 7 21 -6 12 -7 20 -1 20 6 0 6 11 1 30 -6 21
-5 30 3 31 7 0 3 4 -8 9 -18 8 -18 9 -2 9 15 1 16 5 7 21 -6 12 -7 20 -1 20 6
0 6 11 1 30 -6 21 -5 30 3 30 7 0 6 4 -3 10 -11 7 -11 10 -2 10 10 0 10 5 2
20 -6 12 -7 20 -1 20 6 0 6 11 1 30 -6 21 -5 30 3 30 7 0 3 7 -7 15 -18 13
-18 15 -3 15 15 0 16 4 7 20 -8 15 -8 20 1 20 8 0 8 4 -1 15 -8 9 -8 15 -2 15
7 0 8 10 2 30 -5 17 -5 30 -1 30 4 0 8 7 8 15 0 11 -4 12 -13 4 -11 -9 -11 -4
-4 23 12 41 12 41 -2 32 -10 -6 -10 -4 0 8 11 14 10 18 -4 26 -12 7 -13 11 -5
17 9 5 9 10 0 21 -6 8 -8 14 -5 14 4 0 0 7 -9 16 -9 9 -14 23 -11 31 3 8 2 11
-3 8 -5 -3 -12 4 -16 15 -3 11 -9 20 -13 20 -4 0 -20 11 -36 25 -28 24 -40 29
-60 26 -4 -1 -15 4 -23 11 -17 14 -92 18 -99 6 -3 -5 -11 -5 -17 -1 -20 12
-49 14 -62 3 -6 -5 -22 -11 -36 -13 -13 -2 -22 -8 -19 -12 3 -4 -5 -12 -18
-16 -13 -5 -20 -13 -17 -19 3 -5 0 -10 -8 -10 -7 0 -14 -7 -15 -15 -1 -8 -3
-22 -4 -30 -1 -10 -5 -12 -13 -5 -7 6 -11 31 -10 59 1 28 -1 54 -4 59 -3 4
-81 8 -172 8 -152 0 -168 -2 -179 -19z"/>
<path d="M1525 1719 c-3 -4 2 -6 10 -5 21 3 28 13 10 13 -9 0 -18 -4 -20 -8z"/>
<path d="M1587 1679 c7 -7 15 -10 18 -7 3 3 -2 9 -12 12 -14 6 -15 5 -6 -5z"/>
<path d="M1515 1599 c-3 -4 2 -6 10 -5 21 3 28 13 10 13 -9 0 -18 -4 -20 -8z"/>
<path d="M1460 1545 c0 -2 6 -8 13 -14 10 -8 14 -7 14 2 0 8 -6 14 -14 14 -7
0 -13 -1 -13 -2z"/>
<path d="M1553 1489 c-2 -23 3 -25 10 -4 4 8 3 16 -1 19 -4 3 -9 -4 -9 -15z"/>
<path d="M1466 1492 c-2 -4 -1 -14 4 -22 7 -11 9 -9 7 8 -1 24 -3 26 -11 14z"/>
<path d="M1510 1496 c0 -2 8 -10 18 -17 15 -13 16 -12 3 4 -13 16 -21 21 -21
13z"/>
<path d="M4110 1481 c0 -6 4 -13 10 -16 6 -3 7 1 4 9 -7 18 -14 21 -14 7z"/>
<path d="M1565 1400 c-3 -6 1 -7 9 -4 18 7 21 14 7 14 -6 0 -13 -4 -16 -10z"/>
<path d="M4114 1385 c1 -8 8 -21 16 -28 12 -10 12 -9 2 4 -6 9 -9 18 -6 21 3
3 1 9 -4 12 -6 3 -9 -1 -8 -9z"/>
<path d="M4160 1360 c8 -5 20 -10 25 -10 6 0 3 5 -5 10 -8 5 -19 10 -25 10 -5
0 -3 -5 5 -10z"/>
<path d="M4156 1242 c-3 -4 4 -9 15 -9 23 -2 25 3 4 10 -8 4 -16 3 -19 -1z"/>
<path d="M1490 1219 c0 -5 5 -7 10 -4 6 3 10 8 10 11 0 2 -4 4 -10 4 -5 0 -10
-5 -10 -11z"/>
<path d="M4150 1200 c0 -6 7 -10 15 -10 8 0 15 2 15 4 0 2 -7 6 -15 10 -8 3
-15 1 -15 -4z"/>
<path d="M3607 899 c7 -7 15 -10 18 -7 3 3 -2 9 -12 12 -14 6 -15 5 -6 -5z"/>
</g>
</svg>
